<svg width="117" height="117" viewBox="0 0 117 117" fill="none" xmlns="http://www.w3.org/2000/svg">
<mask id="mask0_892_1159" style="mask-type:alpha" maskUnits="userSpaceOnUse" x="0" y="0" width="117" height="117">
<rect width="117" height="117" fill="#D9D9D9"/>
</mask>
<g mask="url(#mask0_892_1159)">
<path d="M58.4549 102.375C52.4018 102.375 46.7131 101.22 41.3888 98.9113C36.0653 96.6014 31.4267 93.4737 27.4731 89.5282C23.5194 85.5827 20.3897 80.9433 18.0838 75.61C15.7779 70.276 14.625 64.5767 14.625 58.5122C14.625 52.4477 15.7767 46.7447 18.0802 41.4034C20.3836 36.0628 23.5097 31.4169 27.4584 27.4657C31.4072 23.5146 36.0506 20.3868 41.3888 18.0826C46.7269 15.7775 52.4306 14.625 58.5 14.625C63.4896 14.625 68.2102 15.3969 72.6619 16.9406C77.1144 18.4844 81.1748 20.6375 84.8433 23.4L81.3369 27.0282C78.1251 24.6403 74.5916 22.7886 70.7363 21.4732C66.8818 20.1577 62.803 19.5 58.5 19.5C47.6937 19.5 38.4922 23.2984 30.8953 30.8953C23.2984 38.4922 19.5 47.6937 19.5 58.5C19.5 69.3063 23.2984 78.5078 30.8953 86.1047C38.4922 93.7016 47.6937 97.5 58.5 97.5C61.3503 97.5 64.1188 97.1937 66.8058 96.5811C69.4935 95.9684 72.0687 95.1218 74.5314 94.0412L78.1877 97.7255C75.231 99.2253 72.0964 100.375 68.7838 101.175C65.4721 101.975 62.0291 102.375 58.4549 102.375ZM95.0625 95.0625V80.4375H80.4375V75.5625H95.0625V60.9375H99.9375V75.5625H114.562V80.4375H99.9375V95.0625H95.0625ZM51.4873 77.5503L34.1433 60.2063L37.5936 56.756L51.4873 70.6497L98.9247 23.1843L102.375 26.6346L51.4873 77.5503Z" fill="white"/>
</g>
</svg>
