<svg width="15" height="17" viewBox="0 0 15 17" fill="none" xmlns="http://www.w3.org/2000/svg">
<path d="M1.49777 16.9022C1.07098 16.9022 0.714658 16.7592 0.428795 16.4734C0.142932 16.1875 0 15.8312 0 15.4044V3.56595C0 3.13916 0.142932 2.78284 0.428795 2.49698C0.714658 2.21111 1.07098 2.06818 1.49777 2.06818H3.13785V0H4.13636V2.06818H10.769V0H11.6961V2.06818H13.3362C13.763 2.06818 14.1193 2.21111 14.4052 2.49698C14.6911 2.78284 14.834 3.13916 14.834 3.56595V15.4044C14.834 15.8312 14.6911 16.1875 14.4052 16.4734C14.1193 16.7592 13.763 16.9022 13.3362 16.9022H1.49777ZM1.49777 15.975H13.3362C13.479 15.975 13.6098 15.9156 13.7286 15.7968C13.8474 15.678 13.9069 15.5472 13.9069 15.4044V7.27445H0.927124V15.4044C0.927124 15.5472 0.986537 15.678 1.10536 15.7968C1.22419 15.9156 1.35499 15.975 1.49777 15.975ZM0.927124 6.34709H13.9069V3.56595C13.9069 3.42317 13.8474 3.29237 13.7286 3.17354C13.6098 3.05472 13.479 2.99531 13.3362 2.99531H1.49777C1.35499 2.99531 1.22419 3.05472 1.10536 3.17354C0.986537 3.29237 0.927124 3.42317 0.927124 3.56595V6.34709Z" fill="white"/>
</svg>
