<svg width="12" height="16" viewBox="0 0 12 16" fill="none" xmlns="http://www.w3.org/2000/svg">
<path d="M7.43583 15.3269V11.1619L5.17938 8.94229L4.44875 12.596L0 11.694L0.13125 11.0848L3.90208 11.819L5.20979 5.12167L2.6025 6.26271V8.32688H1.93583V5.79167L5.82208 4.19875C5.81889 4.20722 5.85389 4.20292 5.92708 4.18583C6.00028 4.16875 6.07958 4.16021 6.165 4.16021C6.46528 4.16021 6.73264 4.22833 6.96708 4.36458C7.20153 4.50083 7.4 4.70889 7.5625 4.98875L7.85417 5.46792C8.26014 6.15486 8.72701 6.67062 9.25479 7.01521C9.78257 7.35979 10.3985 7.5641 11.1025 7.62813V8.29479C10.4497 8.24146 9.78757 8.01444 9.11604 7.61375C8.44465 7.21306 7.84986 6.54368 7.33167 5.60563L6.61208 9.37167L8.1025 10.8942V15.3269H7.43583ZM7.51917 2.98708C7.09722 2.98708 6.74278 2.84368 6.45583 2.55687C6.16903 2.26993 6.02562 1.91549 6.02562 1.49354C6.02562 1.0716 6.16903 0.717153 6.45583 0.430209C6.74278 0.143403 7.09722 0 7.51917 0C7.94111 0 8.29556 0.143403 8.5825 0.430209C8.8693 0.717153 9.01271 1.0716 9.01271 1.49354C9.01271 1.91549 8.8693 2.26993 8.5825 2.55687C8.29556 2.84368 7.94111 2.98708 7.51917 2.98708Z" fill="white"/>
</svg>
