<svg width="24" height="24" viewBox="0 0 24 24" fill="none" xmlns="http://www.w3.org/2000/svg">
<g clip-path="url(#clip0_908_899)">
<path d="M7.33799 22.6844C7.67822 22.6844 8.02654 22.6824 8.38247 22.6824H15.1201C15.4756 22.6824 15.8239 22.6844 16.1641 22.6844C19.2816 22.6844 21.6637 22.5249 21.6637 19.2659C21.6637 15.8548 19.055 13.0544 15.7233 12.75C15.6968 13.9434 11.7524 16.8885 11.7524 16.8885C11.7524 16.8885 7.807 13.9436 7.78026 12.7502C4.44909 13.0544 1.83984 15.8548 1.83984 19.2659C1.83984 22.5249 4.22097 22.6844 7.33799 22.6844ZM14.6953 18.2339C14.6953 18.1368 14.7828 18.0585 14.8917 18.0585H15.9573V16.9934C15.9573 16.8855 16.0351 16.797 16.1322 16.797H17.1838C17.2805 16.797 17.3587 16.8848 17.3587 16.9934V18.0588H18.4238C18.5317 18.0588 18.62 18.137 18.62 18.2342V19.2853C18.62 19.3824 18.5325 19.4607 18.4238 19.4607H17.3585V20.5258C17.3585 20.6342 17.28 20.722 17.1831 20.722H16.132C16.0348 20.722 15.9566 20.6344 15.9566 20.5258V19.4604H14.8915C14.7831 19.4604 14.695 19.3822 14.695 19.285L14.6953 18.2339Z" fill="black"/>
<path d="M11.756 13.6083C14.7693 13.6083 17.2117 9.07736 17.2117 6.06435C17.2117 3.05182 14.7693 0.609375 11.756 0.609375C8.74323 0.609375 6.30078 3.05182 6.30078 6.06435C6.30078 9.07736 8.74323 13.6083 11.756 13.6083Z" fill="#212939"/>
</g>
<defs>
<clipPath id="clip0_908_899">
<rect width="23.3037" height="23.3037" fill="white"/>
</clipPath>
</defs>
</svg>
