<svg width="18" height="18" viewBox="0 0 18 18" fill="none" xmlns="http://www.w3.org/2000/svg">
<path d="M8 17.9C5.7025 17.6628 3.79483 16.6904 2.277 14.9827C0.759 13.2751 0 11.2642 0 8.95C0 6.63583 0.759 4.63133 2.277 2.9365C3.79483 1.24167 5.7025 0.262833 8 0V1.23075C6.04867 1.50258 4.43267 2.36733 3.152 3.825C1.87117 5.28267 1.23075 6.991 1.23075 8.95C1.23075 10.909 1.87117 12.6173 3.152 14.075C4.43267 15.5327 6.04867 16.3974 8 16.6693V17.9ZM10 17.9V16.6693C11.759 16.4692 13.2539 15.7391 14.4848 14.4788C15.7154 13.2186 16.4603 11.709 16.7193 9.95H17.95C17.7167 12.0642 16.8587 13.8658 15.376 15.3548C13.8933 16.8439 12.1013 17.6923 10 17.9ZM16.7193 7.95C16.4474 6.191 15.6993 4.68783 14.475 3.4405C13.2507 2.193 11.759 1.45642 10 1.23075V0C12.1013 0.233333 13.8933 1.09133 15.376 2.574C16.8587 4.05667 17.7167 5.84867 17.95 7.95H16.7193Z" fill="#CB4D4D"/>
</svg>
