<svg width="14" height="14" viewBox="0 0 14 14" fill="none" xmlns="http://www.w3.org/2000/svg">
<path d="M6.95833 13.9167C6.78958 13.9167 6.64076 13.8889 6.51188 13.8333C6.38299 13.7779 6.25778 13.6866 6.13625 13.5594L0.357292 7.78042C0.230069 7.65889 0.13875 7.53368 0.0833333 7.40479C0.0277778 7.2759 0 7.12708 0 6.95833C0 6.78958 0.0267362 6.64319 0.0802085 6.51917C0.133542 6.39528 0.223889 6.26972 0.35125 6.1425L6.13625 0.357292C6.25778 0.232431 6.38299 0.141667 6.51188 0.0850004C6.64076 0.0283337 6.78958 0 6.95833 0C7.12708 0 7.27347 0.0293746 7.3975 0.0881246C7.52139 0.146875 7.64903 0.236598 7.78042 0.357292L13.5594 6.13625C13.6801 6.26764 13.7698 6.39403 13.8285 6.51542C13.8873 6.63681 13.9167 6.78444 13.9167 6.95833C13.9167 7.12708 13.8883 7.2759 13.8317 7.40479C13.775 7.53368 13.6842 7.65889 13.5594 7.78042L7.77417 13.5654C7.64694 13.6928 7.52264 13.7831 7.40125 13.8365C7.27986 13.8899 7.13222 13.9167 6.95833 13.9167ZM6.625 7.6025H7.29167V3.74354H6.625V7.6025ZM6.95396 9.46146C7.07438 9.46146 7.17681 9.42076 7.26125 9.33938C7.3457 9.25785 7.38792 9.15688 7.38792 9.03646C7.38792 8.91604 7.34715 8.81361 7.26562 8.72917C7.1841 8.64472 7.08313 8.6025 6.96271 8.6025C6.84229 8.6025 6.73986 8.64326 6.65542 8.72479C6.57097 8.80632 6.52875 8.90729 6.52875 9.02771C6.52875 9.14812 6.56951 9.25056 6.65104 9.335C6.73257 9.41931 6.83354 9.46146 6.95396 9.46146Z" fill="white"/>
</svg>
