<svg width="20" height="14" viewBox="0 0 20 14" fill="none" xmlns="http://www.w3.org/2000/svg">
<path d="M17.8743 5.55459V5.48309C17.8735 4.80473 17.6038 4.15436 17.1245 3.67438C16.6451 3.1944 15.9951 2.92394 15.3167 2.92222H7.43586C6.8635 2.92256 6.30781 3.11487 5.85767 3.46837C5.40754 3.82188 5.08899 4.31616 4.95299 4.87212L2.32713 2.44125C2.31068 2.42654 2.29753 2.4085 2.28857 2.38833C2.27961 2.36816 2.27503 2.34632 2.27513 2.32425V1.13482C2.27631 0.94751 2.23082 0.762857 2.14276 0.597536C2.0547 0.432216 1.92685 0.291434 1.77075 0.187905C1.61465 0.0843756 1.43522 0.0213606 1.24866 0.00455064C1.06211 -0.0122593 0.874303 0.0176653 0.70221 0.0916218C0.489181 0.18773 0.309081 0.344307 0.184284 0.541903C0.0594862 0.739499 -0.00450919 0.969405 0.000247115 1.20306V12.5092C-0.00226532 12.6594 0.0251791 12.8087 0.0809776 12.9482C0.136776 13.0877 0.21981 13.2146 0.32523 13.3217C0.484065 13.4819 0.687639 13.5902 0.909204 13.6326C1.13077 13.6749 1.35996 13.6492 1.56667 13.5589C1.78169 13.4639 1.96374 13.3073 2.08983 13.1089C2.21593 12.9106 2.28041 12.6792 2.27513 12.4442V10.5593C2.27513 10.5162 2.29225 10.4749 2.32272 10.4444C2.35319 10.414 2.39452 10.3968 2.43762 10.3968H17.0619C17.105 10.3968 17.1463 10.414 17.1768 10.4444C17.2072 10.4749 17.2243 10.5162 17.2243 10.5593V12.5092C17.2235 12.658 17.252 12.8055 17.3083 12.9433C17.3645 13.081 17.4474 13.2063 17.5521 13.312C17.6569 13.4176 17.7815 13.5016 17.9187 13.559C18.056 13.6165 18.2032 13.6462 18.352 13.6467C18.5055 13.6474 18.6573 13.6152 18.7973 13.5524C19.01 13.4569 19.19 13.3009 19.3148 13.1038C19.4396 12.9068 19.5038 12.6774 19.4992 12.4442V7.47199C19.498 7.01208 19.3342 6.56742 19.0369 6.21656C18.7396 5.8657 18.3278 5.63123 17.8743 5.55459ZM5.52496 5.48309C5.52582 4.97655 5.72742 4.49101 6.0856 4.13283C6.44377 3.77465 6.92932 3.57305 7.43586 3.57219H15.3167C15.8227 3.57391 16.3074 3.77589 16.6649 4.13397C17.0223 4.49206 17.2235 4.97711 17.2243 5.48309V7.79697H5.52496V5.48309ZM18.8493 12.4442C18.8525 12.55 18.8255 12.6545 18.7714 12.7455C18.7173 12.8365 18.6383 12.9101 18.5438 12.9577C18.4561 12.9959 18.3589 13.0068 18.265 12.9888C18.171 12.9708 18.0847 12.9249 18.0173 12.857C17.9716 12.8113 17.9355 12.7571 17.9109 12.6974C17.8864 12.6377 17.8739 12.5738 17.8743 12.5092V10.5593C17.8735 10.3441 17.7876 10.138 17.6354 9.98578C17.4832 9.8336 17.2771 9.74772 17.0619 9.74687H2.43762C2.22241 9.74772 2.01625 9.8336 1.86407 9.98578C1.71189 10.138 1.62602 10.3441 1.62516 10.5593V12.4442C1.62843 12.55 1.60141 12.6545 1.5473 12.7455C1.49318 12.8365 1.41421 12.9101 1.31968 12.9577C1.232 12.9959 1.1348 13.0068 1.04085 12.9888C0.946901 12.9708 0.860578 12.9249 0.793206 12.857C0.747538 12.8113 0.711382 12.7571 0.686835 12.6974C0.662289 12.6377 0.649841 12.5738 0.650213 12.5092V1.20306C0.646141 1.09712 0.672818 0.992267 0.727025 0.901153C0.781232 0.810039 0.860651 0.736562 0.955697 0.68959C1.0432 0.650435 1.14063 0.6391 1.23479 0.657118C1.32895 0.675137 1.4153 0.721639 1.48217 0.790335C1.57362 0.881667 1.62505 1.00557 1.62516 1.13482V2.32425C1.62485 2.43648 1.64779 2.54755 1.69254 2.65047C1.73728 2.75338 1.80286 2.84591 1.88515 2.92222L4.87499 5.68783V8.12195C4.87499 8.20814 4.90923 8.2908 4.97018 8.35175C5.03112 8.4127 5.11378 8.44693 5.19998 8.44693H17.5493C17.6355 8.44693 17.7182 8.4127 17.7791 8.35175C17.8401 8.2908 17.8743 8.20814 17.8743 8.12195V6.2208C18.1521 6.29253 18.3984 6.45414 18.5747 6.68046C18.7511 6.90678 18.8476 7.18508 18.8493 7.47199V12.4442Z" fill="white"/>
<path d="M4.54679 0C4.22541 0 3.91125 0.0952994 3.64404 0.273847C3.37682 0.452395 3.16855 0.706172 3.04557 1.00309C2.92258 1.3 2.8904 1.62672 2.9531 1.94192C3.0158 2.25712 3.17055 2.54665 3.3978 2.7739C3.62505 3.00115 3.91458 3.15591 4.22979 3.21861C4.54499 3.28131 4.8717 3.24913 5.16862 3.12614C5.46553 3.00315 5.71931 2.79489 5.89786 2.52767C6.07641 2.26045 6.17171 1.94629 6.17171 1.62492C6.17171 1.19396 6.00051 0.780657 5.69578 0.475927C5.39105 0.171196 4.97775 0 4.54679 0ZM4.54679 2.59986C4.35396 2.59986 4.16547 2.54269 4.00514 2.43556C3.84481 2.32843 3.71985 2.17616 3.64606 1.99801C3.57226 1.81986 3.55296 1.62383 3.59058 1.43471C3.62819 1.24559 3.72105 1.07187 3.8574 0.935522C3.99375 0.799173 4.16747 0.706318 4.35659 0.668699C4.54571 0.631081 4.74174 0.650388 4.91989 0.724179C5.09804 0.797971 5.2503 0.922933 5.35743 1.08326C5.46456 1.24359 5.52174 1.43209 5.52174 1.62492C5.52174 1.88349 5.41902 2.13147 5.23618 2.31431C5.05335 2.49715 4.80536 2.59986 4.54679 2.59986Z" fill="white"/>
</svg>
