<svg width="30" height="30" viewBox="0 0 30 30" fill="none" xmlns="http://www.w3.org/2000/svg">
<rect width="30" height="30" rx="15" fill="#47A9FF"/>
<mask id="mask0_900_830" style="mask-type:alpha" maskUnits="userSpaceOnUse" x="3" y="3" width="25" height="24">
<rect x="3.5" y="3" width="24" height="24" fill="#D9D9D9"/>
</mask>
<g mask="url(#mask0_900_830)">
<path d="M9.70111 18.7207C9.22411 18.7207 8.81544 18.5503 8.47511 18.2094C8.13461 17.8686 7.96436 17.4589 7.96436 16.9802C7.96436 16.4944 8.13478 16.0829 8.47561 15.7457C8.81644 15.4085 9.22619 15.2399 9.70486 15.2399C10.1807 15.2399 10.5881 15.4085 10.9271 15.7457C11.2661 16.0829 11.4356 16.4928 11.4356 16.9754C11.4356 17.4581 11.2658 17.8696 10.9261 18.2099C10.5864 18.5504 10.1781 18.7207 9.70111 18.7207ZM21.2971 18.7207C20.8201 18.7207 20.4114 18.5503 20.0711 18.2094C19.7308 17.8686 19.5606 17.4589 19.5606 16.9802C19.5606 16.4944 19.731 16.0829 20.0719 15.7457C20.4127 15.4085 20.8224 15.2399 21.3009 15.2399C21.7769 15.2399 22.1844 15.4085 22.5234 15.7457C22.8622 16.0829 23.0316 16.4928 23.0316 16.9754C23.0316 17.4581 22.8618 17.8696 22.5221 18.2099C22.1824 18.5504 21.7741 18.7207 21.2971 18.7207ZM15.5174 17.7397C14.8975 17.7397 14.3715 17.5241 13.9394 17.0929C13.5074 16.6616 13.2914 16.1336 13.2914 15.5089C13.2914 14.8796 13.507 14.3505 13.9384 13.9217C14.3695 13.4927 14.8974 13.2782 15.5221 13.2782C16.1388 13.2782 16.6647 13.4927 17.0999 13.9217C17.5352 14.3505 17.7529 14.878 17.7529 15.5042C17.7529 16.1305 17.5352 16.6597 17.0999 17.0917C16.6647 17.5237 16.1372 17.7397 15.5174 17.7397ZM10.9394 23.4994C11.056 22.9609 11.2532 22.4702 11.5309 22.0272C11.8084 21.5844 12.1509 21.1956 12.5586 20.8609C12.9663 20.5263 13.4224 20.2654 13.9269 20.0782C14.4315 19.891 14.9633 19.7974 15.5221 19.7974C16.0836 19.7974 16.6144 19.891 17.1144 20.0782C17.6144 20.2654 18.0682 20.5263 18.4759 20.8609C18.8835 21.1956 19.2262 21.5844 19.5039 22.0272C19.7814 22.4702 19.9784 22.9609 20.0951 23.4994H10.9394ZM7.15286 23.4994C6.83719 23.4994 6.56661 23.3935 6.34111 23.1817C6.11561 22.9697 6.00286 22.7275 6.00286 22.4552C6.00286 21.849 6.37944 21.2545 7.13261 20.6717C7.88594 20.0889 8.72153 19.7974 9.63936 19.7974C9.92503 19.7974 10.2022 19.8257 10.4709 19.8822C10.7397 19.9385 10.9959 20.0231 11.2394 20.1359C10.7915 20.5781 10.4184 21.0851 10.1199 21.6569C9.82136 22.2288 9.61703 22.8429 9.50686 23.4994H7.15286ZM21.5279 23.4994C21.4175 22.8366 21.2134 22.2199 20.9154 21.6494C20.6172 21.0789 20.2406 20.5713 19.7856 20.1264C20.0291 20.0199 20.28 19.9385 20.5384 19.8822C20.7967 19.8257 21.0675 19.7974 21.3509 19.7974C22.2689 19.7974 23.107 20.0889 23.8654 20.6717C24.6237 21.2545 25.0029 21.849 25.0029 22.4552C25.0029 22.7427 24.8899 22.9886 24.6639 23.1929C24.4379 23.3973 24.1592 23.4994 23.8279 23.4994H21.5279ZM5.49236 14.0937C5.36736 13.918 5.31728 13.731 5.34211 13.5327C5.36678 13.3345 5.46586 13.1734 5.63936 13.0494L14.4221 6.33794C14.7516 6.0866 15.1186 5.96094 15.5231 5.96094C15.9276 5.96094 16.2939 6.0866 16.6221 6.33794L19.5124 8.53994V7.73994C19.5124 7.39527 19.6338 7.10235 19.8766 6.86119C20.1194 6.62002 20.4144 6.49944 20.7614 6.49944C21.1082 6.49944 21.4019 6.62002 21.6424 6.86119C21.8827 7.10235 22.0029 7.39527 22.0029 7.73994V10.4457L25.4049 13.0494C25.5702 13.1776 25.6673 13.3398 25.6961 13.5359C25.7249 13.7321 25.6753 13.918 25.5471 14.0937C25.4189 14.2694 25.2568 14.3706 25.0606 14.3974C24.8644 14.4244 24.6785 14.3739 24.5029 14.2457L15.7049 7.53394C15.6535 7.4891 15.5926 7.46669 15.5221 7.46669C15.4516 7.46669 15.3907 7.4891 15.3394 7.53394L6.53161 14.2457C6.35611 14.3739 6.17028 14.4244 5.97411 14.3974C5.77794 14.3706 5.61736 14.2694 5.49236 14.0937Z" fill="white"/>
</g>
</svg>
