<svg width="21" height="16" viewBox="0 0 21 16" fill="none" xmlns="http://www.w3.org/2000/svg">
<path d="M12.2309 12.5296H13.0951V13.427C13.0951 13.6597 13.2945 13.8591 13.5272 13.8591C13.7599 13.8591 13.9593 13.6597 13.9593 13.427V12.5296H14.8567C15.0894 12.5296 15.2888 12.3302 15.2888 12.0975C15.2888 11.8649 15.0894 11.6654 14.8567 11.6654H13.9593V10.768C13.9593 10.5354 13.7599 10.3359 13.5272 10.3359C13.2945 10.3359 13.0951 10.5686 13.0951 10.8013V11.6987H12.1977C11.965 11.6987 11.7656 11.8981 11.7656 12.1307C11.7656 12.3634 11.9983 12.5296 12.2309 12.5296Z" fill="white"/>
<path d="M9.23955 15.3224H17.7815C18.3133 15.3224 18.7786 14.8903 18.7786 14.3253V9.73852H19.809C20.0417 9.73852 20.2411 9.53909 20.2411 9.30643C20.2411 9.07377 20.0417 8.87435 19.809 8.87435H7.24531C7.01265 8.87435 6.81323 9.07377 6.81323 9.30643C6.81323 9.53909 7.01265 9.73852 7.24531 9.73852H8.27567V14.3253C8.24243 14.8903 8.70775 15.3224 9.23955 15.3224ZM9.07336 9.73852H17.9477V14.3253C17.9477 14.425 17.8812 14.4914 17.7815 14.4914H9.23955C9.13984 14.4914 9.07336 14.425 9.07336 14.3253V9.73852ZM12.0315 5.48415C11.7988 5.65033 11.5329 5.883 11.4 6.18213C11.267 6.44803 11.267 6.7804 11.3003 7.01306V7.77752C11.3003 8.01018 11.4997 8.17637 11.7323 8.17637C11.965 8.17637 12.1312 7.97694 12.1312 7.74428V6.94659C12.1312 6.7804 12.1312 6.58098 12.1644 6.48127C12.2309 6.34832 12.3971 6.21537 12.5633 6.08242L12.8624 5.883L13.3277 5.6171C13.3942 5.58386 13.4939 5.55062 13.5604 5.48415C13.5604 5.48415 13.5936 5.48415 13.5936 5.45091L13.8928 5.75005C14.1254 5.94947 14.3249 6.14889 14.5575 6.34832L15.0561 6.81364L15.322 6.54774C15.6543 6.24861 15.9535 5.98271 16.2526 5.68357C16.3191 5.6171 16.4188 5.55062 16.4853 5.45091L16.5185 5.48415C16.585 5.51739 16.6847 5.55062 16.7512 5.58386L16.8509 5.6171C16.9506 5.65034 17.0171 5.71681 17.0503 5.71681L17.3162 5.883C17.3827 5.91623 17.4492 5.98271 17.5156 6.01594C17.6818 6.11566 17.848 6.24861 17.9145 6.38156C17.9477 6.48127 17.9477 6.68069 17.9477 6.84688V7.61133C17.9477 7.84399 18.1471 8.04342 18.3466 8.04342C18.5792 8.04342 18.7454 7.84399 18.7786 7.64457V6.91335C18.7786 6.68069 18.8119 6.34832 18.6789 6.08242C18.546 5.78328 18.2801 5.55062 18.0474 5.38444C17.981 5.31796 17.8812 5.28472 17.7815 5.21825L17.4824 5.05206C17.4159 5.01883 17.3162 4.95235 17.2497 4.91912L17.15 4.88588C17.0503 4.85264 16.9838 4.78617 16.8841 4.75293L16.8509 4.71969C16.7179 4.65322 16.3191 4.45379 16.02 4.78617L15.9535 4.85264L15.6876 5.11854C15.4882 5.31796 15.2555 5.51739 15.0561 5.71681C14.8566 5.55062 14.6572 5.3512 14.4578 5.15178C14.3581 5.05206 14.2584 4.95235 14.1587 4.88588L14.059 4.78617C13.8263 4.55351 13.5936 4.58674 13.4274 4.65322C13.361 4.68645 13.2613 4.71969 13.1948 4.75293C13.0951 4.78617 13.0286 4.85264 12.9289 4.88588L12.3971 5.21825C12.2641 5.31796 12.1644 5.38444 12.0315 5.48415ZM16.1197 3.15754L16.0864 3.32373C16.02 3.55639 16.1529 3.78905 16.3523 3.85552C16.3856 3.85552 16.4188 3.88876 16.4853 3.88876C16.6515 3.88876 16.8176 3.75581 16.8841 3.58962L16.9506 3.42344C16.9838 3.29049 17.0503 3.15754 17.0835 2.99135C17.1833 2.55927 17.2165 2.19366 17.1833 1.82805C17.0835 0.797694 16.3856 0.0664745 15.3884 0H15.189C14.4578 0 13.926 0.166186 13.5604 0.498559C13.1948 0.864169 12.9621 1.36273 12.9289 1.92776C12.8956 2.42632 12.9954 2.95812 13.228 3.58962C13.2945 3.72257 13.4274 3.85552 13.5604 3.85552C13.7931 3.88876 13.9925 3.72257 14.0257 3.48991C14.0257 3.3902 14.0257 3.32373 13.9925 3.25725C13.7931 2.72546 13.7266 2.32661 13.7598 1.961C13.7931 1.59539 13.926 1.29625 14.1254 1.09683C14.3249 0.897406 14.6905 0.830932 15.1558 0.830932H15.322C15.9202 0.897406 16.3191 1.29625 16.3856 1.92776C16.4188 2.19366 16.3856 2.45956 16.2859 2.79193C16.2194 2.89164 16.1861 3.02459 16.1197 3.15754ZM2.0603 4.35408C2.99094 4.35408 3.72216 3.58962 3.72216 2.69222C3.72216 1.79481 2.95771 1.03035 2.0603 1.03035C1.12966 1.03035 0.398438 1.79481 0.398438 2.69222C0.398438 3.58962 1.12966 4.35408 2.0603 4.35408ZM2.0603 1.82805C2.52562 1.82805 2.89123 2.19366 2.89123 2.65898C2.89123 3.1243 2.52562 3.48991 2.0603 3.48991C1.59498 3.48991 1.22937 3.1243 1.22937 2.65898C1.22937 2.19366 1.59498 1.82805 2.0603 1.82805ZM6.14849 12.7631C5.94906 13.594 5.7164 14.425 5.51698 15.2891C5.4505 15.5218 5.58345 15.7212 5.81611 15.7877H5.91582C6.11525 15.7877 6.28143 15.6548 6.31467 15.4886C6.51409 14.6576 6.74676 13.8267 6.94618 12.9625L7.01265 12.7631C7.17884 12.1648 7.37826 11.4336 6.97942 10.8021C6.71352 10.3368 6.18172 10.3036 6.01554 10.3036C5.88259 10.3036 4.45338 10.1706 3.92159 10.1041C3.72216 10.0709 3.55598 10.0709 3.35655 10.0377C3.12389 10.0044 2.92447 10.1706 2.89123 10.4033C2.858 10.6359 3.02418 10.8353 3.25684 10.8686C3.42303 10.9018 3.62245 10.9018 3.78864 10.9351C4.35367 11.0015 5.78288 11.1345 5.94906 11.1345C6.18172 11.1345 6.2482 11.201 6.2482 11.201C6.44762 11.5666 6.31467 12.0651 6.18172 12.5637C6.18172 12.5969 6.14849 12.6966 6.14849 12.7631Z" fill="white"/>
<path d="M0.00317526 6.94787C-0.030062 7.94499 0.202599 8.90887 0.468497 9.77304C0.568209 10.1386 0.667921 10.5375 0.767632 10.9363C1.03353 11.8337 1.49885 12.432 2.1636 12.6647C2.56244 12.7976 2.99453 12.8641 3.39338 12.8641C3.75899 12.8641 4.1246 12.8309 4.49021 12.7976L4.39049 11.9667C3.72575 12.0332 2.99453 12.0996 2.4295 11.9002C2.03065 11.734 1.73151 11.3684 1.53209 10.7037C1.43238 10.3381 1.33267 9.93922 1.23295 9.57361C1.00029 8.74268 0.80087 7.84528 0.80087 6.98111C0.80087 6.44931 0.900581 6.24989 1.13324 6.11694C1.39914 5.98399 1.73151 6.0837 1.93094 6.24989C2.06389 6.3496 2.19683 6.48255 2.26331 6.64873C2.29655 6.71521 2.29655 6.74845 2.32978 6.81492C2.36302 6.94787 2.4295 7.08082 2.46273 7.21377C2.46273 7.28024 2.46273 7.31348 2.49597 7.37995C2.52921 7.74556 2.56244 8.27736 3.061 8.54326H3.09424C3.3269 8.67621 5.05524 9.57361 5.05524 9.57361C5.25466 9.67333 5.52056 9.60685 5.62027 9.40743C5.71998 9.208 5.65351 8.94211 5.45409 8.84239C3.99165 8.07794 3.5928 7.84528 3.45985 7.81204C3.36014 7.7788 3.3269 7.47967 3.3269 7.31348C3.3269 7.24701 3.3269 7.18053 3.29366 7.08082C3.26043 6.8814 3.19395 6.68197 3.12748 6.51579C3.09424 6.44931 3.061 6.38284 3.02777 6.28313C2.89482 6.01723 2.66216 5.78457 2.4295 5.58514C1.93094 5.21953 1.29943 5.15306 0.80087 5.38572C0.00317522 5.75133 0.00317526 6.51579 0.00317526 6.94787Z" fill="white"/>
</svg>
