<svg width="82" height="83" viewBox="0 0 82 83" fill="none" xmlns="http://www.w3.org/2000/svg">
<path d="M47.9601 83C40.6429 83 34.4092 80.4673 29.2591 75.4019C24.1098 70.3374 21.5352 64.1748 21.5352 56.9143V54.461C15.4734 53.9014 10.3688 51.3734 6.22128 46.8772C2.07376 42.3802 0 37.0306 0 30.8286V4.74286H14.3568V0H19.1424V14.2286H14.3568V9.48571H4.7856V30.8286C4.7856 36.0457 6.65995 40.5119 10.4087 44.2271C14.1574 47.9424 18.6638 49.8 23.928 49.8C29.1921 49.8 33.6986 47.9424 37.4473 44.2271C41.196 40.5119 43.0704 36.0457 43.0704 30.8286V9.48571H33.4992V14.2286H28.7136V0H33.4992V4.74286H47.856V30.8286C47.856 37.0306 45.7822 42.3802 41.6347 46.8772C37.4872 51.3734 32.3825 53.9014 26.3208 54.461V56.9143C26.3208 62.8429 28.4237 67.8821 32.6294 72.0321C36.8343 76.1821 41.9406 78.2571 47.9481 78.2571C53.9301 78.2571 59.0148 76.1821 63.2022 72.0321C67.3896 67.8821 69.4833 62.8429 69.4833 56.9143V49.5178C67.2436 48.9945 65.3956 47.827 63.9392 46.0152C62.4819 44.2026 61.7533 42.1197 61.7533 39.7665C61.7533 36.9801 62.7384 34.6114 64.7084 32.6605C66.6793 30.7096 69.0721 29.7342 71.8868 29.7342C74.7024 29.7342 77.0916 30.7096 79.0545 32.6605C81.0182 34.6114 82 36.9801 82 39.7665C82 42.1197 81.2714 44.2026 79.8142 46.0152C78.357 47.827 76.5085 48.9945 74.2689 49.5178V56.9143C74.2689 64.1748 71.7134 70.3374 66.6023 75.4019C61.4921 80.4673 55.278 83 47.9601 83ZM71.8761 45.0571C73.3548 45.0571 74.6142 44.5417 75.6543 43.511C76.6944 42.4802 77.2144 41.232 77.2144 39.7665C77.2144 38.3017 76.6944 37.054 75.6543 36.0232C74.6142 34.9924 73.3548 34.477 71.8761 34.477C70.3973 34.477 69.1379 34.9924 68.0978 36.0232C67.0586 37.054 66.5389 38.3017 66.5389 39.7665C66.5389 41.232 67.0586 42.4802 68.0978 43.511C69.1379 44.5417 70.3973 45.0571 71.8761 45.0571Z" fill="#323E54"/>
</svg>
