<svg width="65" height="65" viewBox="0 0 65 65" fill="none" xmlns="http://www.w3.org/2000/svg">
<path d="M32.25 64.5002C23.6968 64.5002 15.4939 61.1024 9.44581 55.0544C3.39776 49.0063 0 40.8034 0 32.2502C0 23.6969 3.39776 15.494 9.44581 9.44598C15.4939 3.39793 23.6968 0.000173251 32.25 0.000173123C37.2758 -0.0164643 42.2331 1.16628 46.71 3.45017C46.974 3.58412 47.2089 3.76875 47.4016 3.99351C47.5942 4.21828 47.7406 4.47878 47.8325 4.76014C47.9245 5.0415 47.9601 5.33821 47.9373 5.63334C47.9146 5.92846 47.834 6.21622 47.7 6.48017C47.5661 6.74413 47.3814 6.97912 47.1567 7.17172C46.9319 7.36433 46.6714 7.51078 46.39 7.60271C46.1087 7.69464 45.812 7.73025 45.5168 7.70751C45.2217 7.68477 44.934 7.60412 44.67 7.47017C40.8297 5.49088 36.5704 4.46208 32.25 4.47017C26.7628 4.47018 21.3989 6.09693 16.836 9.14482C12.2732 12.1927 8.71644 16.5249 6.61523 21.5938C4.51402 26.6627 3.96272 32.2408 5.03103 37.6229C6.09935 43.0051 8.7393 47.9497 12.6172 51.8318C16.4951 55.7139 21.4369 58.3592 26.8179 59.4333C32.1989 60.5074 37.7775 59.9622 42.8487 57.8664C47.9199 55.7707 52.2559 52.2186 55.3087 47.6591C58.3615 43.0996 59.9941 37.7373 60 32.2502C60.0156 32.0004 60.0156 31.7499 60 31.5002C59.9443 30.9034 60.1279 30.309 60.5105 29.8477C60.8931 29.3863 61.4433 29.0959 62.04 29.0402C62.6367 28.9845 63.2312 29.1681 63.6925 29.5507C64.1538 29.9333 64.4443 30.4834 64.5 31.0802V32.2502C64.4921 40.801 61.0918 48.9993 55.0454 55.0456C48.9991 61.0919 40.8008 64.4922 32.25 64.5002Z" fill="#20BF55"/>
<path d="M31.708 42.4808C31.4164 42.4852 31.1271 42.4287 30.8585 42.3151C30.5899 42.2015 30.348 42.0331 30.148 41.8208L15.658 27.6008C15.2367 27.179 15 26.6071 15 26.0108C15 25.4146 15.2367 24.8427 15.658 24.4208C16.0887 24.0048 16.6642 23.7722 17.263 23.7722C17.8619 23.7722 18.4373 24.0048 18.868 24.4208L31.738 37.1108L60.688 8.64084C61.1187 8.22475 61.6942 7.99219 62.293 7.99219C62.8919 7.99219 63.4673 8.22475 63.898 8.64084C64.3194 9.06272 64.556 9.63459 64.556 10.2308C64.556 10.8271 64.3194 11.399 63.898 11.8208L33.358 41.8208C33.1433 42.0386 32.8859 42.2096 32.6019 42.3231C32.318 42.4367 32.0137 42.4904 31.708 42.4808Z" fill="#20BF55"/>
</svg>
