<svg width="80" height="80" viewBox="0 0 80 80" fill="none" xmlns="http://www.w3.org/2000/svg">
<rect x="80" width="80" height="80" rx="40" transform="rotate(90 80 0)" fill="white"/>
<path d="M21.25 29.5H58.75C59.5457 29.5 60.3087 29.8161 60.8713 30.3787C61.4339 30.9413 61.75 31.7044 61.75 32.5V61.75H18.25V32.5C18.25 31.7044 18.5661 30.9413 19.1287 30.3787C19.6913 29.8161 20.4544 29.5 21.25 29.5Z" fill="#008B81"/>
<path d="M29.5 18.25H50.5C51.2956 18.25 52.0587 18.5661 52.6213 19.1287C53.1839 19.6913 53.5 20.4544 53.5 21.25V61.75H26.5V21.25C26.5 20.4544 26.8161 19.6913 27.3787 19.1287C27.9413 18.5661 28.7044 18.25 29.5 18.25Z" fill="#00A99D"/>
<path d="M40 35.875C43.935 35.875 47.125 32.685 47.125 28.75C47.125 24.815 43.935 21.625 40 21.625C36.065 21.625 32.875 24.815 32.875 28.75C32.875 32.685 36.065 35.875 40 35.875Z" fill="#F4FBFE"/>
<path d="M42.625 27.25H41.5V26.125C41.5 25.7272 41.342 25.3456 41.0607 25.0643C40.7794 24.783 40.3978 24.625 40 24.625C39.6022 24.625 39.2206 24.783 38.9393 25.0643C38.658 25.3456 38.5 25.7272 38.5 26.125V27.25H37.375C36.9772 27.25 36.5956 27.408 36.3143 27.6893C36.033 27.9706 35.875 28.3522 35.875 28.75C35.875 29.1478 36.033 29.5294 36.3143 29.8107C36.5956 30.092 36.9772 30.25 37.375 30.25H38.5V31.375C38.5 31.7728 38.658 32.1544 38.9393 32.4357C39.2206 32.717 39.6022 32.875 40 32.875C40.3978 32.875 40.7794 32.717 41.0607 32.4357C41.342 32.1544 41.5 31.7728 41.5 31.375V30.25H42.625C43.0228 30.25 43.4044 30.092 43.6857 29.8107C43.967 29.5294 44.125 29.1478 44.125 28.75C44.125 28.3522 43.967 27.9706 43.6857 27.6893C43.4044 27.408 43.0228 27.25 42.625 27.25Z" fill="#E13332"/>
<path d="M33.25 50.5H40V61.75H33.25V50.5ZM40 50.5H46.75V61.75H40V50.5Z" fill="#E4F4FD"/>
<path d="M31 47.5H49C49.1989 47.5 49.3897 47.579 49.5303 47.7197C49.671 47.8603 49.75 48.0511 49.75 48.25V50.5H30.25V48.25C30.25 48.0511 30.329 47.8603 30.4697 47.7197C30.6103 47.579 30.8011 47.5 31 47.5ZM49.75 50.5V61.75H46.75V50.5H49.75ZM33.25 50.5V61.75H30.25V50.5H33.25Z" fill="#465867"/>
<path d="M53.5 34.75H57.25C57.4489 34.75 57.6397 34.829 57.7803 34.9697C57.921 35.1103 58 35.3011 58 35.5V38.5C58 38.6989 57.921 38.8897 57.7803 39.0303C57.6397 39.171 57.4489 39.25 57.25 39.25H53.5V34.75ZM53.5 43.75H57.25C57.4489 43.75 57.6397 43.829 57.7803 43.9697C57.921 44.1103 58 44.3011 58 44.5V47.5C58 47.6989 57.921 47.8897 57.7803 48.0303C57.6397 48.171 57.4489 48.25 57.25 48.25H53.5V43.75ZM53.5 52.75H57.25C57.4489 52.75 57.6397 52.829 57.7803 52.9697C57.921 53.1103 58 53.3011 58 53.5V56.5C58 56.6989 57.921 56.8897 57.7803 57.0303C57.6397 57.171 57.4489 57.25 57.25 57.25H53.5V52.75ZM26.5 39.25H22.75C22.5511 39.25 22.3603 39.171 22.2197 39.0303C22.079 38.8897 22 38.6989 22 38.5V35.5C22 35.3011 22.079 35.1103 22.2197 34.9697C22.3603 34.829 22.5511 34.75 22.75 34.75H26.5V39.25ZM26.5 48.25H22.75C22.5511 48.25 22.3603 48.171 22.2197 48.0303C22.079 47.8897 22 47.6989 22 47.5V44.5C22 44.3011 22.079 44.1103 22.2197 43.9697C22.3603 43.829 22.5511 43.75 22.75 43.75H26.5V48.25ZM26.5 57.25H22.75C22.5511 57.25 22.3603 57.171 22.2197 57.0303C22.079 56.8897 22 56.6989 22 56.5V53.5C22 53.3011 22.079 53.1103 22.2197 52.9697C22.3603 52.829 22.5511 52.75 22.75 52.75H26.5V57.25Z" fill="#E4F4FD"/>
<path d="M37 39.25H31C30.5858 39.25 30.25 39.5858 30.25 40V43C30.25 43.4142 30.5858 43.75 31 43.75H37C37.4142 43.75 37.75 43.4142 37.75 43V40C37.75 39.5858 37.4142 39.25 37 39.25Z" fill="#E4F4FD"/>
<path d="M49 39.25H43C42.5858 39.25 42.25 39.5858 42.25 40V43C42.25 43.4142 42.5858 43.75 43 43.75H49C49.4142 43.75 49.75 43.4142 49.75 43V40C49.75 39.5858 49.4142 39.25 49 39.25Z" fill="#E4F4FD"/>
<path d="M39.25 50.5H40.75V61.75H39.25V50.5Z" fill="#C9DFEB"/>
<path d="M43 56.875C43.4142 56.875 43.75 56.5392 43.75 56.125C43.75 55.7108 43.4142 55.375 43 55.375C42.5858 55.375 42.25 55.7108 42.25 56.125C42.25 56.5392 42.5858 56.875 43 56.875Z" fill="#C9DFEB"/>
<path d="M37 56.875C37.4142 56.875 37.75 56.5392 37.75 56.125C37.75 55.7108 37.4142 55.375 37 55.375C36.5858 55.375 36.25 55.7108 36.25 56.125C36.25 56.5392 36.5858 56.875 37 56.875Z" fill="#C9DFEB"/>
</svg>
