<svg width="78" height="78" viewBox="0 0 78 78" fill="none" xmlns="http://www.w3.org/2000/svg">
  <g clip-path="url(#clip0_61_1012)">
    <path d="M71.8872 78.0001L38.677 75.8334L5.44548 78.0001C5.38302 78.0001 5.32311 77.9753 5.27894 77.9311C5.23477 77.8869 5.20996 77.827 5.20996 77.7645V33.4647H72.1228V77.7645C72.1228 77.827 72.098 77.8869 72.0538 77.9311C72.0096 77.9753 71.9496 78.0001 71.8872 78.0001Z" fill="#FEB237"/>
    <path d="M65.8449 33.4647V64.7434C65.8449 70.3312 61.315 74.8612 55.7271 74.8612H5.20996V77.7645C5.20996 77.8946 5.31538 78.0001 5.44548 78.0001L38.6771 75.8334L71.8873 78.0001C72.0174 78.0001 72.1228 77.8946 72.1228 77.7645V33.4647H65.8449Z" fill="#F6AB31"/>
    <path d="M72.0726 33.3413L38.7774 0.0460758C38.7629 0.0314692 38.7455 0.0198816 38.7265 0.0119755C38.7074 0.0040694 38.687 0 38.6663 0C38.6457 0 38.6252 0.0040694 38.6062 0.0119755C38.5871 0.0198816 38.5698 0.0314692 38.5552 0.0460758L5.26015 33.3413C5.24424 33.3572 5.23162 33.376 5.223 33.3968C5.21439 33.4176 5.20996 33.4399 5.20996 33.4624C5.20996 33.4849 5.21439 33.5071 5.223 33.5279C5.23162 33.5487 5.24424 33.5676 5.26015 33.5835L38.6664 66.9896L72.0726 33.5833C72.0885 33.5674 72.1012 33.5486 72.1098 33.5278C72.1184 33.507 72.1228 33.4848 72.1228 33.4623C72.1228 33.4398 72.1184 33.4176 72.1098 33.3968C72.1012 33.376 72.0885 33.3571 72.0726 33.3413Z" fill="#ECA026"/>
    <path d="M71.8875 78.0001C71.9184 78.0001 71.9491 77.994 71.9776 77.9822C72.0062 77.9704 72.0322 77.953 72.054 77.9311L38.7776 44.6545C38.7481 44.6251 38.7082 44.6086 38.6666 44.6086C38.6251 44.6086 38.5852 44.6251 38.5557 44.6545L5.2793 77.9311C5.32195 77.9737 5.38076 78.0001 5.44581 78.0001H71.8875Z" fill="#FFC344"/>
    <path d="M64.2781 70.1548C62.4841 72.9835 59.3251 74.861 55.7276 74.861H8.34933L5.2793 77.9311C5.32195 77.9737 5.38076 78.0001 5.44581 78.0001H71.8875C71.9184 78.0001 71.9491 77.994 71.9776 77.9822C72.0062 77.9703 72.0322 77.953 72.054 77.9311L64.2781 70.1548Z" fill="#FEB237"/>
    <path d="M45.1668 28.1668L38.6667 34.6668L32.1667 28.1668H4.23705C4.20592 28.1668 4.17509 28.1606 4.14633 28.1487C4.11757 28.1368 4.09144 28.1193 4.06943 28.0973C4.04742 28.0753 4.02996 28.0492 4.01804 28.0204C4.00613 27.9917 4 27.9608 4 27.9297V11.0704C4 10.9396 4.10618 10.8334 4.23705 10.8334H73.0964C73.2273 10.8334 73.3335 10.9396 73.3335 11.0704V27.9297C73.3335 28.0606 73.2273 28.1668 73.0964 28.1668H45.1668Z" fill="#80D261"/>
    <path d="M15.3872 17.3037C15.2357 17.0413 14.9861 16.8499 14.6935 16.7715C14.4008 16.693 14.0889 16.7341 13.8265 16.8855L12.7258 17.521V16.25C12.7258 15.6188 12.2144 15.1074 11.5832 15.1074C10.9521 15.1074 10.4406 15.6188 10.4406 16.25V17.5211L9.33981 16.8855C9.20988 16.8105 9.06644 16.7618 8.91767 16.7422C8.7689 16.7226 8.61773 16.7324 8.47279 16.7713C8.32785 16.8101 8.19198 16.8771 8.07295 16.9685C7.95391 17.0598 7.85405 17.1738 7.77905 17.3037C7.62754 17.5662 7.58648 17.878 7.66491 18.1707C7.74333 18.4634 7.93481 18.713 8.19723 18.8645L9.29807 19.5001L8.19739 20.1355C7.9371 20.2881 7.74773 20.5374 7.67062 20.8291C7.5935 21.1208 7.63488 21.4312 7.78574 21.6925C7.93661 21.9538 8.1847 22.1448 8.47587 22.2238C8.76705 22.3029 9.07768 22.2636 9.33996 22.1144L10.4408 21.4789V22.75C10.4408 23.3812 10.9522 23.8926 11.5834 23.8926C12.2145 23.8926 12.726 23.3812 12.726 22.75V21.479L13.8266 22.1144C13.9566 22.1895 14.1 22.2383 14.2488 22.2579C14.3976 22.2775 14.5487 22.2676 14.6937 22.2288C14.8386 22.1899 14.9745 22.1229 15.0935 22.0315C15.2126 21.9402 15.3124 21.8262 15.3874 21.6963C15.5389 21.4338 15.58 21.122 15.5015 20.8293C15.4231 20.5366 15.2316 20.287 14.9692 20.1355L13.8684 19.5001L14.9691 18.8646C15.099 18.7896 15.2129 18.6897 15.3043 18.5707C15.3956 18.4516 15.4626 18.3158 15.5015 18.1708C15.5403 18.0259 15.5502 17.8747 15.5306 17.7259C15.511 17.5771 15.4623 17.4337 15.3872 17.3037ZM26.2207 17.3037C26.0692 17.0413 25.8196 16.8498 25.5269 16.7714C25.2342 16.693 24.9224 16.734 24.66 16.8855L23.5591 17.5211V16.25C23.5591 15.6188 23.0477 15.1074 22.4165 15.1074C21.7854 15.1074 21.274 15.6188 21.274 16.25V17.521L20.1733 16.8855C20.0434 16.8105 19.8999 16.7618 19.7511 16.7422C19.6024 16.7226 19.4512 16.7324 19.3063 16.7713C19.1613 16.8101 19.0255 16.8771 18.9064 16.9685C18.7874 17.0598 18.6875 17.1738 18.6125 17.3037C18.461 17.5662 18.42 17.878 18.4984 18.1707C18.5768 18.4634 18.7683 18.713 19.0307 18.8645L20.1314 19.4999L19.0307 20.1353C18.7704 20.2879 18.581 20.5373 18.5039 20.829C18.4268 21.1207 18.4682 21.431 18.6191 21.6923C18.7699 21.9536 19.018 22.1446 19.3092 22.2237C19.6004 22.3027 19.911 22.2634 20.1733 22.1143L21.274 21.4789V22.7499C21.274 23.381 21.7854 23.8924 22.4165 23.8924C23.0477 23.8924 23.5591 23.381 23.5591 22.7499V21.4787L24.66 22.1143C24.7899 22.1894 24.9333 22.2381 25.0821 22.2577C25.2309 22.2773 25.382 22.2675 25.527 22.2286C25.6719 22.1898 25.8078 22.1228 25.9268 22.0314C26.0459 21.94 26.1457 21.8261 26.2207 21.6961C26.3722 21.4337 26.4133 21.1218 26.3349 20.8291C26.2564 20.5364 26.065 20.2869 25.8025 20.1353L24.7017 19.5001L25.8024 18.8646C26.0648 18.7131 26.2563 18.4635 26.3347 18.1708C26.4132 17.8781 26.3722 17.5662 26.2207 17.3037ZM69.1358 20.1355L68.0351 19.5001L69.1358 18.8646C69.3961 18.7121 69.5855 18.4627 69.6626 18.171C69.7397 17.8793 69.6983 17.569 69.5474 17.3077C69.3966 17.0464 69.1485 16.8554 68.8573 16.7763C68.5661 16.6972 68.2555 16.7366 67.9932 16.8857L66.8925 17.5211V16.2501C66.8925 15.619 66.3811 15.1075 65.75 15.1075C65.1188 15.1075 64.6074 15.619 64.6074 16.2501V17.5213L63.5065 16.8857C63.3766 16.8106 63.2332 16.7619 63.0844 16.7423C62.9356 16.7227 62.7845 16.7326 62.6395 16.7714C62.4946 16.8103 62.3587 16.8773 62.2397 16.9686C62.1206 17.06 62.0208 17.1739 61.9458 17.3039C61.7943 17.5663 61.7532 17.8782 61.8316 18.1709C61.9101 18.4636 62.1015 18.7131 62.364 18.8646L63.4647 19.5001L62.364 20.1355C62.1037 20.2881 61.9143 20.5374 61.8372 20.8291C61.7601 21.1208 61.8015 21.4312 61.9523 21.6925C62.1032 21.9538 62.3513 22.1448 62.6425 22.2238C62.9336 22.3029 63.2443 22.2636 63.5065 22.1144L64.6074 21.4789V22.75C64.6074 23.3812 65.1188 23.8926 65.75 23.8926C66.3811 23.8926 66.8925 23.3812 66.8925 22.75V21.479L67.9932 22.1144C68.1231 22.1895 68.2666 22.2383 68.4154 22.2579C68.5641 22.2775 68.7153 22.2676 68.8603 22.2288C69.0052 22.1899 69.1411 22.1229 69.2601 22.0315C69.3791 21.9402 69.479 21.8262 69.554 21.6963C69.7055 21.4338 69.7466 21.122 69.6681 20.8293C69.5897 20.5366 69.3982 20.287 69.1358 20.1355ZM58.7207 17.3037C58.5691 17.0413 58.3196 16.8499 58.0269 16.7715C57.7342 16.693 57.4223 16.7341 57.1599 16.8855L56.0592 17.521V16.25C56.0592 15.6188 55.5478 15.1074 54.9166 15.1074C54.2855 15.1074 53.7741 15.6188 53.7741 16.25V17.5211L52.6732 16.8855C52.5433 16.8105 52.3999 16.7618 52.2511 16.7422C52.1023 16.7226 51.9511 16.7324 51.8062 16.7713C51.6613 16.8101 51.5254 16.8771 51.4064 16.9685C51.2873 17.0598 51.1875 17.1738 51.1125 17.3037C50.961 17.5662 50.9199 17.878 50.9983 18.1707C51.0767 18.4634 51.2682 18.713 51.5307 18.8645L52.6313 19.4999L51.5307 20.1353C51.2704 20.2879 51.081 20.5373 51.0039 20.829C50.9268 21.1207 50.9681 21.431 51.119 21.6923C51.2699 21.9536 51.518 22.1446 51.8091 22.2237C52.1003 22.3027 52.4109 22.2634 52.6732 22.1143L53.7741 21.4787V22.7499C53.7741 23.381 54.2855 23.8924 54.9166 23.8924C55.5478 23.8924 56.0592 23.381 56.0592 22.7499V21.4789L57.1599 22.1143C57.2898 22.1894 57.4333 22.2381 57.582 22.2577C57.7308 22.2773 57.882 22.2675 58.0269 22.2286C58.1719 22.1898 58.3078 22.1228 58.4268 22.0314C58.5458 21.94 58.6457 21.8261 58.7207 21.6961C58.8722 21.4337 58.9132 21.1218 58.8348 20.8291C58.7564 20.5364 58.5649 20.2869 58.3025 20.1353L57.2016 19.5001L58.3023 18.8646C58.5648 18.7131 58.7562 18.4635 58.8347 18.1708C58.9131 17.8781 58.8721 17.5662 58.7207 17.3037ZM37.054 17.3037C36.9025 17.0413 36.6529 16.8499 36.3602 16.7715C36.0676 16.693 35.7557 16.7341 35.4933 16.8855L34.3924 17.5211V16.25C34.3924 15.6188 33.881 15.1074 33.2499 15.1074C32.6187 15.1074 32.1073 15.6188 32.1073 16.25V17.521L31.0066 16.8855C30.8767 16.8105 30.7332 16.7618 30.5845 16.7422C30.4357 16.7226 30.2845 16.7324 30.1396 16.7713C29.9946 16.8101 29.8588 16.8771 29.7397 16.9685C29.6207 17.0598 29.5208 17.1738 29.4458 17.3037C29.2943 17.5662 29.2533 17.878 29.3317 18.1707C29.4101 18.4634 29.6016 18.713 29.864 18.8645L30.9647 19.4999L29.864 20.1353C29.6037 20.2879 29.4144 20.5373 29.3372 20.829C29.2601 21.1207 29.3015 21.431 29.4524 21.6923C29.6032 21.9536 29.8513 22.1446 30.1425 22.2237C30.4337 22.3027 30.7443 22.2634 31.0066 22.1143L32.1073 21.4789V22.7499C32.1073 23.381 32.6187 23.8924 33.2499 23.8924C33.881 23.8924 34.3924 23.381 34.3924 22.7499V21.4787L35.4933 22.1143C35.6232 22.1894 35.7666 22.2381 35.9154 22.2577C36.0642 22.2773 36.2154 22.2675 36.3603 22.2286C36.5053 22.1898 36.6411 22.1228 36.7602 22.0314C36.8792 21.94 36.9791 21.8261 37.054 21.6961C37.2055 21.4337 37.2466 21.1218 37.1682 20.8291C37.0898 20.5364 36.8983 20.2869 36.6359 20.1353L35.5352 19.5001L36.6359 18.8646C36.8983 18.7131 37.0898 18.4635 37.1682 18.1708C37.2466 17.8781 37.2056 17.5662 37.054 17.3037ZM47.8874 17.3037C47.7358 17.0413 47.4863 16.8498 47.1936 16.7714C46.9009 16.693 46.589 16.734 46.3266 16.8855L45.2258 17.5211V16.2501C45.2258 15.619 44.7143 15.1075 44.0832 15.1075C43.452 15.1075 42.9406 15.619 42.9406 16.2501V17.5211L41.8398 16.8855C41.7098 16.8105 41.5664 16.7618 41.4176 16.7422C41.2689 16.7226 41.1177 16.7324 40.9727 16.7713C40.8278 16.8101 40.6919 16.8771 40.5729 16.9685C40.4539 17.0598 40.354 17.1738 40.279 17.3037C40.1275 17.5662 40.0864 17.878 40.1649 18.1707C40.2433 18.4634 40.4348 18.713 40.6972 18.8645L41.7979 19.4999L40.6972 20.1353C40.4369 20.2879 40.2475 20.5373 40.1704 20.829C40.0933 21.1207 40.1347 21.431 40.2855 21.6923C40.4364 21.9536 40.6845 22.1446 40.9757 22.2237C41.2668 22.3027 41.5775 22.2634 41.8398 22.1143L42.9406 21.4787V22.7497C42.9406 23.3809 43.452 23.8923 44.0832 23.8923C44.7143 23.8923 45.2258 23.3809 45.2258 22.7497V21.4787L46.3266 22.1143C46.4565 22.1894 46.6 22.2381 46.7487 22.2577C46.8975 22.2773 47.0487 22.2675 47.1936 22.2286C47.3386 22.1898 47.4744 22.1228 47.5935 22.0314C47.7125 21.94 47.8124 21.8261 47.8874 21.6961C48.0389 21.4337 48.0799 21.1218 48.0015 20.8291C47.9231 20.5364 47.7316 20.2869 47.4692 20.1353L46.3685 19.5001L47.4692 18.8646C47.5991 18.7896 47.713 18.6897 47.8044 18.5707C47.8957 18.4516 47.9627 18.3158 48.0016 18.1708C48.0404 18.0259 48.0503 17.8747 48.0307 17.7259C48.0111 17.5771 47.9624 17.4337 47.8874 17.3037Z" fill="#EAF9FA"/>
  </g>
  <defs>
    <clipPath id="clip0_61_1012">
      <rect width="78" height="78" fill="white" />
    </clipPath>
  </defs>
</svg>

