<svg width="31" height="31" viewBox="0 0 31 31" fill="none" xmlns="http://www.w3.org/2000/svg">
  <mask id="mask0_37_1921" style="mask-type: alpha" maskUnits="userSpaceOnUse" x="0" y="0" width="31" height="31">
    <rect width="31" height="31" fill="#D9D9D9" />
  </mask>
  <g mask="url(#mask0_37_1921)">
    <path d="M13.9716 14.8971L22.9594 5.93101C23.1747 5.71573 23.4258 5.60809 23.7127 5.60809C23.9999 5.60809 24.2511 5.71573 24.4664 5.93101C24.6817 6.14628 24.7893 6.39741 24.7893 6.68437C24.7893 6.97134 24.6817 7.22246 24.4664 7.43774L15.4893 16.4258L13.9716 14.8971ZM17.276 18.2018L25.3273 10.1396C25.5437 9.9243 25.8005 9.81666 26.0978 9.81666C26.3951 9.81666 26.6514 9.92323 26.8667 10.1364C27.0819 10.3493 27.1896 10.6021 27.1896 10.8949C27.1896 11.1879 27.0819 11.442 26.8667 11.6573L18.7937 19.7302L17.276 18.2018ZM6.46899 24.4448C4.50996 22.4858 3.52689 20.1357 3.51979 17.3945C3.51268 14.6532 4.48865 12.303 6.44767 10.344L10.3656 6.42604L11.905 7.96538C12.1273 8.18776 12.3103 8.44071 12.4539 8.72424C12.5973 9.00754 12.6942 9.27836 12.7445 9.5367L17.8466 4.40232C18.0628 4.18704 18.3195 4.0794 18.6168 4.0794C18.9141 4.0794 19.1704 4.18747 19.3857 4.40361C19.6009 4.61953 19.7086 4.87604 19.7086 5.17312C19.7086 5.4702 19.6009 5.72639 19.3857 5.94166L13.1534 12.174L10.8393 14.4773L11.6034 15.2417C12.5364 16.1745 12.9849 17.2904 12.949 18.5893C12.913 19.8881 12.4251 21.0076 11.4852 21.9477L11.3344 22.0982L9.81666 20.5698L9.96747 20.419C10.4912 19.8952 10.7657 19.28 10.7909 18.5732C10.8159 17.8662 10.5737 17.2581 10.0643 16.7487L8.54663 15.2417C8.33135 15.0255 8.22371 14.7687 8.22371 14.4712C8.22371 14.1739 8.33135 13.9176 8.54663 13.7023L10.3656 11.9156C10.6956 11.5856 10.8607 11.1784 10.8607 10.694C10.8607 10.2097 10.6956 9.80235 10.3656 9.47211L7.9544 11.8833C6.41883 13.4189 5.65459 15.2577 5.66169 17.3997C5.66901 19.5417 6.44046 21.3806 7.97604 22.9164C9.52604 24.4664 11.381 25.2522 13.5409 25.2737C15.701 25.2952 17.5488 24.5381 19.0844 23.0023L26.845 15.231C27.0614 15.0157 27.3182 14.9081 27.6155 14.9081C27.9128 14.9081 28.1691 15.0145 28.3844 15.2275C28.5996 15.4406 28.7073 15.6935 28.7073 15.9863C28.7073 16.2793 28.5996 16.5334 28.3844 16.7487L20.6127 24.5094C18.6537 26.4684 16.2964 27.4371 13.5409 27.4156C10.7853 27.3941 8.42801 26.4038 6.46899 24.4448ZM22.1521 29.719L22.1737 27.5554C23.6662 27.5554 24.9364 27.0317 25.9841 25.9841C27.0317 24.9364 27.5554 23.6662 27.5554 22.1737L29.719 22.1521C29.719 24.2452 28.9811 26.0297 27.5054 27.5054C26.0297 28.9811 24.2452 29.719 22.1521 29.719ZM1.28101 8.84791C1.28101 6.75477 2.01887 4.97033 3.4946 3.4946C4.97033 2.01887 6.75477 1.28101 8.84791 1.28101L8.82628 3.44455C7.33376 3.44455 6.06362 3.96832 5.01586 5.01586C3.96832 6.06362 3.44455 7.33376 3.44455 8.82628L1.28101 8.84791Z" fill="#44B678"/>
  </g>
</svg>

