<svg width="44" height="44" viewBox="0 0 44 44" fill="none" xmlns="http://www.w3.org/2000/svg">
  <mask id="mask0_37_2907" style="mask-type: alpha" maskUnits="userSpaceOnUse" x="0" y="0" width="44" height="44">
    <rect width="44" height="44" fill="#D9D9D9" />
  </mask>
  <g mask="url(#mask0_37_2907)">
    <path d="M14.6665 38.2181V29.3333H5.78174V14.6667H14.6665V5.78186H29.3332V14.6667H38.218V29.3333H29.3332V38.2181H14.6665ZM7.61507 21.0833H16.4999C16.6643 21.0833 16.8076 21.1186 16.9298 21.1892C17.052 21.2598 17.1544 21.3585 17.2369 21.4853L19.8984 25.4549L22.9729 16.2319C23.0481 16.0299 23.1579 15.8713 23.3024 15.7561C23.447 15.6409 23.6216 15.5833 23.8263 15.5833C23.9837 15.5833 24.1333 15.6206 24.275 15.6952C24.4165 15.7694 24.5267 15.8661 24.6055 15.9853L27.9687 21.0833H36.3847V16.5H27.4999V7.61519H16.4999V16.5H7.61507V21.0833ZM16.4999 36.3848H27.4999V27.5H36.3847V22.9167H27.4999C27.3465 22.9167 27.2007 22.8762 27.0626 22.7952C26.9245 22.7142 26.8093 22.609 26.717 22.4794L24.1013 18.5451L21.0268 27.7681C20.9517 27.9701 20.8342 28.1287 20.6744 28.2439C20.5146 28.3591 20.3289 28.4167 20.1175 28.4167C19.9552 28.4167 19.813 28.3814 19.6908 28.3108C19.5686 28.2402 19.4662 28.1415 19.3837 28.0147L15.9852 22.9167H7.61507V27.5H16.4999V36.3848Z" fill="#44B678"/>
  </g>
</svg>

