<svg width="78" height="78" viewBox="0 0 78 78" fill="none" xmlns="http://www.w3.org/2000/svg">
  <path d="M8.53125 74.3438L69.4688 74.3438C72.1611 74.3438 74.3438 72.1611 74.3438 69.4688V57.2812C74.3438 54.5889 72.1611 52.4062 69.4688 52.4062L8.53125 52.4063C5.83886 52.4063 3.65625 54.5889 3.65625 57.2813V69.4688C3.65625 72.1611 5.83886 74.3438 8.53125 74.3438Z" fill="#64B5F6"/>
  <path d="M74.3438 57.2812V69.4688C74.3439 70.109 74.2179 70.743 73.973 71.3345C73.7281 71.9261 73.369 72.4635 72.9163 72.9163C72.4635 73.369 71.9261 73.7281 71.3345 73.973C70.743 74.2179 70.109 74.3439 69.4688 74.3438H8.53125C7.89101 74.3439 7.25701 74.2179 6.66548 73.973C6.07394 73.7281 5.53647 73.369 5.08375 72.9163C4.63103 72.4635 4.27195 71.9261 4.02701 71.3345C3.78208 70.743 3.65609 70.109 3.65625 69.4688V65.8125C3.65609 66.4527 3.78208 67.0867 4.02701 67.6783C4.27195 68.2698 4.63103 68.8073 5.08375 69.26C5.53647 69.7127 6.07394 70.0718 6.66548 70.3167C7.25701 70.5617 7.89101 70.6877 8.53125 70.6875H63.375C64.0152 70.6877 64.6492 70.5617 65.2408 70.3167C65.8323 70.0718 66.3698 69.7127 66.8225 69.26C67.2752 68.8073 67.6343 68.2698 67.8792 67.6783C68.1242 67.0867 68.2502 66.4527 68.25 65.8125V57.2812C68.2502 56.641 68.1242 56.007 67.8792 55.4155C67.6343 54.8239 67.2752 54.2865 66.8225 53.8337C66.3698 53.381 65.8323 53.0219 65.2408 52.777C64.6492 52.5321 64.0152 52.4061 63.375 52.4063H69.4688C70.109 52.4061 70.743 52.5321 71.3345 52.777C71.9261 53.0219 72.4635 53.381 72.9163 53.8337C73.369 54.2865 73.7281 54.8239 73.973 55.4155C74.2179 56.007 74.3439 56.641 74.3438 57.2812Z" fill="#42A5F5"/>
  <path d="M36.9649 60.3281C36.8033 60.0482 36.5371 59.844 36.2249 59.7603C35.9127 59.6767 35.58 59.7205 35.3001 59.8821L32.9065 61.2641V58.5C32.9065 58.1768 32.7781 57.8668 32.5495 57.6382C32.321 57.4097 32.011 57.2812 31.6877 57.2812C31.3645 57.2812 31.0545 57.4097 30.8259 57.6382C30.5974 57.8668 30.469 58.1768 30.469 58.5V61.2641L28.0754 59.8821C27.9367 59.8008 27.7833 59.7477 27.6241 59.7259C27.4648 59.7042 27.3029 59.7141 27.1475 59.7552C26.9921 59.7963 26.8464 59.8677 26.7187 59.9653C26.591 60.063 26.4839 60.1849 26.4035 60.3241C26.3232 60.4633 26.2711 60.617 26.2504 60.7764C26.2297 60.9358 26.2407 61.0977 26.2828 61.2528C26.3249 61.4079 26.3973 61.5531 26.4958 61.6802C26.5943 61.8072 26.7169 61.9135 26.8566 61.9929L29.2502 63.375L26.8566 64.7571C26.579 64.9198 26.377 65.1858 26.2947 65.4969C26.2125 65.8081 26.2566 66.1391 26.4175 66.4178C26.5784 66.6966 26.8431 66.9003 27.1537 66.9846C27.4643 67.069 27.7956 67.027 28.0754 66.8679L30.469 65.4859V68.25C30.469 68.5732 30.5974 68.8832 30.8259 69.1118C31.0545 69.3403 31.3645 69.4688 31.6877 69.4688C32.011 69.4688 32.321 69.3403 32.5495 69.1118C32.7781 68.8832 32.9065 68.5732 32.9065 68.25V65.4859L35.3001 66.8679C35.5799 67.027 35.9112 67.069 36.2218 66.9846C36.5324 66.9003 36.797 66.6966 36.9579 66.4178C37.1189 66.1391 37.163 65.8081 37.0807 65.4969C36.9985 65.1858 36.7965 64.9198 36.5189 64.7571L34.1252 63.375L36.5189 61.9929C36.7988 61.8313 37.003 61.5651 37.0867 61.2529C37.1703 60.9407 37.1265 60.608 36.9649 60.3281ZM22.3399 60.3281C22.1783 60.0482 21.9121 59.844 21.5999 59.7603C21.2877 59.6767 20.955 59.7205 20.6751 59.8821L18.2815 61.2641V58.5C18.2815 58.1768 18.1531 57.8668 17.9245 57.6382C17.696 57.4097 17.386 57.2812 17.0627 57.2812C16.7395 57.2812 16.4295 57.4097 16.2009 57.6382C15.9724 57.8668 15.844 58.1768 15.844 58.5V61.2641L13.4504 59.8821C13.3117 59.8008 13.1583 59.7477 12.9991 59.7259C12.8398 59.7042 12.6779 59.7141 12.5225 59.7552C12.3671 59.7963 12.2214 59.8677 12.0937 59.9653C11.966 60.063 11.8589 60.1849 11.7785 60.3241C11.6982 60.4633 11.6461 60.617 11.6254 60.7764C11.6047 60.9358 11.6157 61.0977 11.6578 61.2528C11.6999 61.4079 11.7723 61.5531 11.8708 61.6802C11.9693 61.8072 12.0919 61.9135 12.2316 61.9929L14.6252 63.375L12.2316 64.7571C11.954 64.9198 11.752 65.1858 11.6697 65.4969C11.5875 65.8081 11.6316 66.1391 11.7925 66.4178C11.9534 66.6966 12.2181 66.9003 12.5287 66.9846C12.8393 67.069 13.1706 67.027 13.4504 66.8679L15.844 65.4859V68.25C15.844 68.5732 15.9724 68.8832 16.2009 69.1118C16.4295 69.3403 16.7395 69.4688 17.0627 69.4688C17.386 69.4688 17.696 69.3403 17.9245 69.1118C18.1531 68.8832 18.2815 68.5732 18.2815 68.25V65.4859L20.6751 66.8679C20.9549 67.027 21.2862 67.069 21.5968 66.9846C21.9074 66.9003 22.172 66.6966 22.3329 66.4178C22.4939 66.1391 22.538 65.8081 22.4558 65.4969C22.3735 65.1858 22.1715 64.9198 21.8939 64.7571L19.5002 63.375L21.8939 61.9929C22.1738 61.8313 22.378 61.5651 22.4617 61.2529C22.5453 60.9407 22.5015 60.608 22.3399 60.3281ZM51.5899 60.3281C51.4283 60.0482 51.1621 59.844 50.8499 59.7603C50.5377 59.6767 50.205 59.7205 49.9251 59.8821L47.5315 61.2641V58.5C47.5315 58.1768 47.4031 57.8668 47.1745 57.6382C46.946 57.4097 46.636 57.2812 46.3127 57.2812C45.9895 57.2812 45.6795 57.4097 45.4509 57.6382C45.2224 57.8668 45.094 58.1768 45.094 58.5V61.2641L42.7004 59.8821C42.5617 59.8008 42.4083 59.7477 42.2491 59.7259C42.0898 59.7042 41.9279 59.7141 41.7725 59.7552C41.6171 59.7963 41.4714 59.8677 41.3437 59.9653C41.216 60.063 41.1089 60.1849 41.0285 60.3241C40.9482 60.4633 40.8961 60.617 40.8754 60.7764C40.8547 60.9358 40.8657 61.0977 40.9078 61.2528C40.9499 61.4079 41.0223 61.5531 41.1208 61.6802C41.2193 61.8072 41.3419 61.9135 41.4816 61.9929L43.8752 63.375L41.4816 64.7571C41.204 64.9198 41.002 65.1858 40.9197 65.4969C40.8375 65.8081 40.8816 66.1391 41.0425 66.4178C41.2034 66.6966 41.4681 66.9003 41.7787 66.9846C42.0893 67.069 42.4206 67.027 42.7004 66.8679L45.094 65.4859V68.25C45.094 68.5732 45.2224 68.8832 45.4509 69.1118C45.6795 69.3403 45.9895 69.4688 46.3127 69.4688C46.636 69.4688 46.946 69.3403 47.1745 69.1118C47.4031 68.8832 47.5315 68.5732 47.5315 68.25V65.4859L49.9251 66.8679C50.0638 66.9492 50.2171 67.0023 50.3764 67.0241C50.5356 67.0458 50.6976 67.0359 50.853 66.9948C51.0084 66.9537 51.1541 66.8823 51.2818 66.7847C51.4095 66.687 51.5166 66.5651 51.5969 66.4259C51.6773 66.2867 51.7294 66.133 51.7501 65.9736C51.7708 65.8142 51.7598 65.6523 51.7177 65.4972C51.6755 65.3421 51.6032 65.1969 51.5047 65.0698C51.4062 64.9428 51.2836 64.8365 51.1439 64.7571L48.7502 63.375L51.1439 61.9929C51.4238 61.8313 51.628 61.5651 51.7117 61.2529C51.7953 60.9407 51.7515 60.608 51.5899 60.3281ZM65.7689 64.7571L63.3752 63.375L65.7689 61.9929C65.9086 61.9135 66.0312 61.8072 66.1297 61.6802C66.2282 61.5531 66.3005 61.4079 66.3427 61.2528C66.3848 61.0977 66.3958 60.9358 66.3751 60.7764C66.3544 60.617 66.3023 60.4633 66.2219 60.3241C66.1416 60.1849 66.0345 60.063 65.9068 59.9653C65.7791 59.8677 65.6334 59.7963 65.478 59.7552C65.3226 59.7141 65.1606 59.7042 65.0014 59.7259C64.8421 59.7477 64.6888 59.8008 64.5501 59.8821L62.1565 61.2641V58.5C62.1565 58.1768 62.0281 57.8668 61.7995 57.6382C61.571 57.4097 61.261 57.2812 60.9377 57.2812C60.6145 57.2812 60.3045 57.4097 60.076 57.6382C59.8474 57.8668 59.719 58.1768 59.719 58.5V61.2641L57.3254 59.8821C57.0456 59.723 56.7143 59.681 56.4037 59.7654C56.0931 59.8497 55.8284 60.0534 55.6675 60.3322C55.5066 60.6109 55.4625 60.9419 55.5447 61.2531C55.627 61.5642 55.829 61.8302 56.1066 61.9929L58.5002 63.375L56.1066 64.7571C55.829 64.9198 55.627 65.1858 55.5447 65.4969C55.4625 65.8081 55.5066 66.1391 55.6675 66.4178C55.8284 66.6966 56.0931 66.9003 56.4037 66.9846C56.7143 67.069 57.0456 67.027 57.3254 66.8679L59.719 65.4859V68.25C59.719 68.5732 59.8474 68.8832 60.076 69.1118C60.3045 69.3403 60.6145 69.4688 60.9377 69.4688C61.261 69.4688 61.571 69.3403 61.7995 69.1118C62.0281 68.8832 62.1565 68.5732 62.1565 68.25V65.4859L64.5501 66.8679C64.6888 66.9492 64.8421 67.0023 65.0014 67.0241C65.1606 67.0458 65.3226 67.0359 65.478 66.9948C65.6334 66.9537 65.7791 66.8823 65.9068 66.7847C66.0345 66.687 66.1416 66.5651 66.2219 66.4259C66.3023 66.2867 66.3544 66.133 66.3751 65.9736C66.3958 65.8142 66.3848 65.6523 66.3427 65.4972C66.3005 65.3421 66.2282 65.1969 66.1297 65.0698C66.0312 64.9428 65.9086 64.8365 65.7689 64.7571ZM49.969 18.2812H47.5315V13.4062C47.5315 11.1436 46.6327 8.97366 45.0327 7.37374C43.4328 5.77383 41.2629 4.875 39.0002 4.875C36.7376 4.875 34.5676 5.77383 32.9677 7.37374C31.3678 8.97366 30.469 11.1436 30.469 13.4062V18.2812H28.0315V13.4062C28.0315 10.4972 29.1871 7.70721 31.2442 5.65017C33.3012 3.59313 36.0911 2.4375 39.0002 2.4375C41.9093 2.4375 44.6993 3.59313 46.7563 5.65017C48.8134 7.70721 49.969 10.4972 49.969 13.4062V18.2812Z" fill="#EEEEEE"/>
  <path d="M26.8125 18.2812H51.1875C51.834 18.2812 52.454 18.5381 52.9111 18.9952C53.3682 19.4523 53.625 20.0723 53.625 20.7188V40.2188C53.625 41.5117 53.1114 42.7517 52.1971 43.6659C51.2829 44.5801 50.0429 45.0938 48.75 45.0938H29.25C27.9571 45.0938 26.7171 44.5801 25.8029 43.6659C24.8886 42.7517 24.375 41.5117 24.375 40.2188V20.7188C24.375 20.0723 24.6318 19.4523 25.0889 18.9952C25.546 18.5381 26.166 18.2812 26.8125 18.2812Z" fill="#FFB74D"/>
  <path d="M53.625 20.7188V40.2188C53.6252 40.859 53.4992 41.493 53.2542 42.0845C53.0093 42.6761 52.6502 43.2135 52.1975 43.6663C51.7448 44.119 51.2073 44.4781 50.6158 44.723C50.0242 44.9679 49.3902 45.0939 48.75 45.0938H29.25C28.6098 45.0939 27.9758 44.9679 27.3842 44.723C26.7927 44.4781 26.2552 44.119 25.8025 43.6663C25.3498 43.2135 24.9907 42.6761 24.7458 42.0845C24.5008 41.493 24.3748 40.859 24.375 40.2188V36.5625C24.3748 37.2027 24.5008 37.8367 24.7458 38.4283C24.9907 39.0198 25.3498 39.5573 25.8025 40.01C26.2552 40.4627 26.7927 40.8218 27.3842 41.0667C27.9758 41.3117 28.6098 41.4377 29.25 41.4375H42.6562C43.2965 41.4377 43.9305 41.3117 44.522 41.0667C45.1136 40.8218 45.651 40.4627 46.1038 40.01C46.5565 39.5573 46.9156 39.0198 47.1605 38.4283C47.4054 37.8367 47.5314 37.2027 47.5312 36.5625V20.7188C47.5293 20.0729 47.2719 19.454 46.8152 18.9973C46.3585 18.5406 45.7396 18.2832 45.0938 18.2812H51.1875C51.8334 18.2832 52.4522 18.5406 52.9089 18.9973C53.3656 19.454 53.6231 20.0729 53.625 20.7188Z" fill="#FFA726"/>
  <path d="M42.6562 29.25C42.6571 28.6205 42.4954 28.0014 42.1868 27.4526C41.8782 26.9039 41.4331 26.4442 40.8947 26.118C40.3562 25.7917 39.7427 25.6101 39.1134 25.5905C38.4842 25.571 37.8606 25.7143 37.3029 26.0065C36.7453 26.2987 36.2726 26.7299 35.9305 27.2585C35.5885 27.787 35.3887 28.3948 35.3505 29.0232C35.3123 29.6516 35.437 30.2792 35.7125 30.8453C35.9881 31.4113 36.4051 31.8966 36.9232 32.2542L35.3438 37.7813H42.6562L41.0767 32.2542C41.5637 31.9189 41.9619 31.4703 42.2371 30.9469C42.5122 30.4236 42.6561 29.8413 42.6562 29.25Z" fill="#757575"/>
  <path d="M39.3656 32.2603L37.7812 37.7813H35.3438L36.9281 32.2603C36.2855 31.8183 35.801 31.1823 35.5457 30.4453C35.2904 29.7083 35.2775 28.9089 35.509 28.164C35.7405 27.4192 36.2042 26.7679 36.8323 26.3055C37.4604 25.843 38.22 25.5936 39 25.5938C39.4163 25.5912 39.8295 25.6655 40.2188 25.8131C39.5044 26.0596 38.8851 26.5236 38.4479 27.14C38.0108 27.7564 37.7776 28.4943 37.7812 29.25C37.7816 29.8426 37.926 30.4262 38.202 30.9506C38.478 31.475 38.8774 31.9245 39.3656 32.2603Z" fill="#616161"/>
</svg>

