<svg width="78" height="78" viewBox="0 0 78 78" fill="none" xmlns="http://www.w3.org/2000/svg">
  <path fill-rule="evenodd" clip-rule="evenodd" d="M28.4061 9.36579C28.5277 9.39076 28.6429 9.44022 28.7447 9.51117C28.8466 9.58212 28.9329 9.67306 28.9984 9.77846C29.064 9.88385 29.1074 10.0015 29.126 10.1242C29.1446 10.2469 29.138 10.3721 29.1066 10.4922C29.0752 10.6123 29.0197 10.7247 28.9435 10.8227C28.8672 10.9206 28.7719 11.002 28.6631 11.0619C28.5544 11.1217 28.4346 11.1588 28.3111 11.1709C28.1876 11.183 28.0629 11.1698 27.9446 11.1321C22.5434 9.69775 17.0447 10.5957 12.5323 13.2009C8.01807 15.8072 4.4901 20.121 3.03217 25.5158C2.98456 25.7364 2.85703 25.9316 2.67412 26.0638C2.49122 26.196 2.26587 26.2558 2.04146 26.2318C1.81706 26.2078 1.60947 26.1017 1.45866 25.9338C1.30785 25.7659 1.22448 25.5481 1.22461 25.3224C1.22461 24.8176 1.22568 25.3224 1.22568 25.3224C1.22568 25.2446 1.23573 25.1655 1.25675 25.0868C2.83778 19.1862 6.68827 14.4692 11.6183 11.6228C16.5344 8.78445 22.5236 7.80534 28.4061 9.36579ZM25.6712 19.6091C22.6019 18.7997 19.478 19.3123 16.9128 20.7934C16.895 20.8038 16.8778 20.8146 16.861 20.8259C14.3087 22.3181 12.3175 24.7702 11.4975 27.8306C11.4924 27.8496 11.4879 27.8688 11.4842 27.8881L11.4831 27.8877V27.8881C11.4399 28.1224 11.4898 28.3643 11.6223 28.5623C11.7548 28.7603 11.9593 28.8988 12.1924 28.9482C12.4255 28.9977 12.6687 28.9541 12.8701 28.8269C13.0716 28.6996 13.2154 28.4988 13.2709 28.2671C13.9688 25.7007 15.6407 23.6463 17.7804 22.3967C17.796 22.3887 17.8115 22.3805 17.8267 22.3717C19.9877 21.124 22.6205 20.6924 25.2079 21.3752C25.2384 21.3847 25.2695 21.3926 25.3015 21.399H25.3016C25.5365 21.4417 25.7787 21.3908 25.9765 21.2573C26.1744 21.1238 26.3121 20.9182 26.3604 20.6844C26.4086 20.4507 26.3635 20.2073 26.2347 20.0064C26.1059 19.8054 25.9038 19.6628 25.6712 19.6091ZM27.1381 14.5182C27.1214 14.5126 27.1045 14.5076 27.0874 14.503L27.0882 14.5002C22.5965 13.2967 18.0202 14.0405 14.2657 16.208C10.5126 18.3748 7.581 21.9663 6.37733 26.4586C6.31483 26.6925 6.3478 26.9417 6.46899 27.1512C6.59019 27.3608 6.78968 27.5137 7.02357 27.5762C7.25747 27.6387 7.50662 27.6057 7.71621 27.4845C7.9258 27.3633 8.07866 27.1639 8.14117 26.93C9.21474 22.9236 11.8305 19.72 15.1798 17.7863C18.5278 15.8534 22.6096 15.1904 26.6168 16.2641L26.6176 16.2613C26.8458 16.3208 27.0882 16.2894 27.2937 16.1737C27.4993 16.058 27.6518 15.867 27.7194 15.641C27.7869 15.415 27.764 15.1717 27.6556 14.9622C27.5472 14.7527 27.3618 14.5935 27.1383 14.5181L27.1381 14.5182Z" fill="#2DCFFC"/>
  <path fill-rule="evenodd" clip-rule="evenodd" d="M31.933 27.2925C32.6125 18.9727 39.8619 12.7498 48.1884 13.3386C56.515 13.9273 62.8166 21.1084 62.3186 29.4409C70.2697 29.4409 76.7752 35.9464 76.7752 43.8976C76.7752 51.8487 70.2699 58.3542 62.3186 58.3542H15.1138C9.35841 58.3088 4.7168 53.6305 4.7168 47.8749C4.7168 42.1194 9.35841 37.4411 15.1138 37.3957C13.7139 31.8464 17.3453 26.0305 22.5291 24.8064C25.6662 24.0656 29.306 24.9077 31.933 27.2925Z" fill="#2A93FC"/>
  <path fill-rule="evenodd" clip-rule="evenodd" d="M62.3181 29.441C70.2692 29.441 76.7748 35.9464 76.7748 43.8975C76.7748 51.8487 70.2694 58.3542 62.3181 58.3542H20.1314C14.3761 58.309 9.73438 53.6305 9.73438 47.8749C9.73438 42.1194 14.3761 37.4411 20.1314 37.3957C18.4995 26.9076 30.506 24.7472 34.3588 30.7114C36.4431 11.5874 61.1534 12.6665 62.318 29.4409L62.3181 29.441Z" fill="#5CAEFF"/>
  <path fill-rule="evenodd" clip-rule="evenodd" d="M44.4245 18.6012C44.1889 18.6398 43.9476 18.5844 43.7524 18.447C43.5572 18.3095 43.4237 18.1009 43.3807 17.8661C43.3377 17.6313 43.3885 17.3889 43.5223 17.1912C43.6561 16.9935 43.8621 16.8561 44.0961 16.8087C44.3386 16.7639 44.5766 16.7255 44.8094 16.6938C48.3871 16.2062 51.5938 17.0881 54.0533 18.8615C56.5208 20.6409 58.2284 23.3144 58.7998 26.4025C58.8363 26.5991 58.8676 26.7939 58.8938 26.9868C58.9098 27.1054 58.9022 27.226 58.8715 27.3417C58.8408 27.4574 58.7877 27.5659 58.7151 27.6611C58.6424 27.7562 58.5518 27.8361 58.4483 27.8963C58.3448 27.9564 58.2305 27.9955 58.1119 28.0114C57.9932 28.0274 57.8726 28.0198 57.7569 27.9891C57.6412 27.9585 57.5327 27.9053 57.4376 27.8327C57.3424 27.7601 57.2625 27.6694 57.2024 27.5659C57.1423 27.4624 57.1031 27.3481 57.0872 27.2295C57.0645 27.0627 57.0379 26.8964 57.0074 26.7308C56.5226 24.111 55.077 21.8452 52.9891 20.3396C50.8932 18.8282 48.1414 18.0792 45.052 18.5003C44.8421 18.5289 44.6328 18.5625 44.4244 18.6009L44.4245 18.6012ZM29.0572 34.0405C34.6499 34.0405 39.2256 38.6162 39.2256 44.2089V50.6899H35.352V44.2089C35.352 40.7544 32.5117 37.9141 29.0572 37.9141C25.6026 37.9141 22.7623 40.7544 22.7623 44.2089V50.6899H18.8887V44.2089C18.8887 38.6162 23.4645 34.0405 29.0572 34.0405Z" fill="#BDDFFF"/>
  <path fill-rule="evenodd" clip-rule="evenodd" d="M29.7427 34.0642C35.0188 34.4199 39.2256 38.8466 39.2256 44.2089V50.69H36.7231V44.2089C36.7231 40.7544 33.8828 37.9141 30.4283 37.9141C30.1967 37.9141 29.968 37.9272 29.7427 37.952C29.5151 37.9269 29.2862 37.9142 29.0572 37.9141C25.6026 37.9141 22.7623 40.7544 22.7623 44.2089V50.69H20.2598V44.2089C20.2598 38.8466 24.4666 34.4198 29.7427 34.0642Z" fill="white"/>
  <path d="M41.0423 47.3423H17.0734C15.6694 47.3423 14.5312 48.4805 14.5312 49.8845V66.8321C14.5312 68.2361 15.6694 69.3743 17.0734 69.3743H41.0423C42.4463 69.3743 43.5844 68.2361 43.5844 66.8321V49.8845C43.5844 48.4805 42.4463 47.3423 41.0423 47.3423Z" fill="#F9AC00"/>
  <path d="M41.0415 47.3423H19.5578C18.1538 47.3423 17.0156 48.4805 17.0156 49.8845V66.8321C17.0156 68.2361 18.1538 69.3743 19.5578 69.3743H41.0415C42.4454 69.3743 43.5836 68.2361 43.5836 66.8321V49.8845C43.5836 48.4805 42.4454 47.3423 41.0415 47.3423Z" fill="#FDC72E"/>
  <path fill-rule="evenodd" clip-rule="evenodd" d="M57.8569 47.2845L49.0513 50.2501C48.6448 50.3871 48.3828 50.7516 48.3828 51.1805V59.2943C48.3828 64.5849 53.8899 66.7808 57.8569 69.3743C61.8239 66.7808 67.331 64.5849 67.331 59.2943V51.1805C67.331 50.7516 67.0691 50.3869 66.6625 50.2501L57.8569 47.2845Z" fill="#2DD62D"/>
  <path fill-rule="evenodd" clip-rule="evenodd" d="M57.8568 47.2845L49.0511 50.2501C48.6447 50.3869 48.3828 50.7516 48.3828 51.1805V59.2943C48.3828 64.5849 53.8897 66.7808 57.8569 69.3743V47.2845H57.8568Z" fill="#00AB0B"/>
  <path fill-rule="evenodd" clip-rule="evenodd" d="M57.8577 47.2845L49.8634 49.9768V49.9982L49.8633 59.245C49.8633 62.9981 51.9972 65.3846 54.5651 67.3644C55.684 68.0486 56.8231 68.6979 57.8575 69.3741V47.2843L57.8577 47.2845Z" fill="#29B933"/>
  <path fill-rule="evenodd" clip-rule="evenodd" d="M52.9437 57.4153C52.8433 57.1956 52.8343 56.945 52.9187 56.7187C53.0031 56.4924 53.1739 56.3088 53.3936 56.2084C53.6133 56.1081 53.8638 56.0991 54.0902 56.1834C54.3165 56.2678 54.5001 56.4386 54.6004 56.6583L56.0637 59.8636L62.177 53.7504C62.3483 53.579 62.5808 53.4827 62.8232 53.4827C63.0656 53.4827 63.298 53.579 63.4694 53.7504C63.6408 53.9218 63.7371 54.1542 63.7371 54.3966C63.7371 54.639 63.6408 54.8715 63.4694 55.0429L56.4278 62.0846L56.4257 62.0825C56.3217 62.1865 56.1941 62.2638 56.0538 62.3078C55.9135 62.3517 55.7646 62.361 55.6199 62.335C55.4752 62.3089 55.339 62.2481 55.2229 62.1579C55.1067 62.0677 55.0142 61.9507 54.9531 61.817L52.9437 57.4153Z" fill="white"/>
  <path fill-rule="evenodd" clip-rule="evenodd" d="M30.2013 52.281C31.8452 52.281 33.1779 53.6137 33.1779 55.2577C33.1779 56.4099 32.5231 57.4091 31.5655 57.9039V63.0715C31.5655 63.8218 30.9515 64.4359 30.2013 64.4359C29.451 64.4359 28.837 63.822 28.837 63.0715V57.904C27.8794 57.4092 27.2246 56.41 27.2246 55.2578C27.2246 53.6139 28.5573 52.281 30.2013 52.281Z" fill="#F9AC00"/>
  <path fill-rule="evenodd" clip-rule="evenodd" d="M29.0588 52.281C30.7028 52.281 32.0355 53.6137 32.0355 55.2577C32.0355 56.4099 31.3807 57.4091 30.4231 57.9039V63.0715C30.4231 63.8218 29.8091 64.4359 29.0588 64.4359C28.3084 64.4359 27.6944 63.822 27.6944 63.0715V57.904C26.7368 57.4092 26.082 56.41 26.082 55.2578C26.082 53.6139 27.4147 52.2812 29.0587 52.2812L29.0588 52.281Z" fill="white"/>
</svg>

