<svg width="78" height="78" viewBox="0 0 78 78" fill="none" xmlns="http://www.w3.org/2000/svg">
  <path fill-rule="evenodd" clip-rule="evenodd" d="M39.0002 1.67578L9.24318 11.6977C7.86964 12.1602 6.98438 13.3925 6.98438 14.8418V42.2609C6.98438 60.1394 25.5942 67.5602 39.0003 76.3242C52.4063 67.5602 71.0161 60.1394 71.0161 42.2609V14.8418C71.0161 13.3924 70.131 12.1602 68.7573 11.6977L39.0002 1.67578Z" fill="#0062D9"/>
  <path fill-rule="evenodd" clip-rule="evenodd" d="M38.9879 70.6113C41.8874 68.8143 44.844 67.1064 47.7521 65.325C56.3769 60.042 66.1872 53.5429 66.1872 42.2608V15.9272L38.9998 6.77077L11.8125 15.9271V42.2608C11.8125 45.6271 12.626 48.6898 14.3455 51.5851C19.0528 59.5111 30.5316 65.4408 38.988 70.6113H38.9879Z" fill="#4EB1FC"/>
  <path fill-rule="evenodd" clip-rule="evenodd" d="M39 70.604C41.8957 68.8097 44.8482 67.1039 47.7523 65.3252C56.3771 60.0422 66.1874 53.543 66.1874 42.2609V15.9272L39 6.77077V70.604Z" fill="#2A92FA"/>
  <path fill-rule="evenodd" clip-rule="evenodd" d="M44.5487 30.2052H48.9875V24.0761C48.9875 18.583 44.4931 14.0887 39 14.0887C33.507 14.0887 29.0127 18.583 29.0127 24.0761V30.2052H33.4515V24.0759C33.4515 21.0243 35.9483 18.5273 39.0002 18.5273C42.052 18.5273 44.5489 21.024 44.5489 24.0759V30.2052H44.5487Z" fill="white"/>
  <path d="M50.8988 29.8053H26.8736C24.9576 29.8053 23.4043 31.3586 23.4043 33.2746V50.308C23.4043 52.2241 24.9576 53.7773 26.8736 53.7773H50.8988C52.8149 53.7773 54.3682 52.2241 54.3682 50.308V33.2746C54.3682 31.3586 52.8149 29.8053 50.8988 29.8053Z" fill="#FDC72E"/>
  <path d="M47.8139 29.8053H26.8736C24.9576 29.8053 23.4043 31.3586 23.4043 33.2746V50.308C23.4043 52.2241 24.9576 53.7773 26.8736 53.7773H47.8139C49.7299 53.7773 51.2832 52.2241 51.2832 50.308V33.2746C51.2832 31.3586 49.7299 29.8053 47.8139 29.8053Z" fill="#FCDB35"/>
  <path fill-rule="evenodd" clip-rule="evenodd" d="M37.5836 36.6106C39.1949 36.6106 40.5012 37.917 40.5012 39.5283C40.5012 40.5196 40.0066 41.3955 39.2508 41.9227V46.1046C39.2508 47.0215 38.5007 47.7717 37.5837 47.7717C36.6667 47.7717 35.9165 47.0215 35.9165 46.1046V41.9227C35.1607 41.3955 34.666 40.5196 34.666 39.5283C34.666 37.917 35.9722 36.6106 37.5836 36.6106Z" fill="#FDC72E"/>
  <path fill-rule="evenodd" clip-rule="evenodd" d="M39.0005 36.6106C40.6119 36.6106 41.9182 37.917 41.9182 39.5283C41.9182 40.5196 41.4237 41.3955 40.6678 41.9227V46.1046C40.6678 47.0215 39.9177 47.7717 39.0007 47.7717C38.0837 47.7717 37.3334 47.0215 37.3334 46.1046V41.9227C36.5777 41.3955 36.083 40.5196 36.083 39.5283C36.083 37.917 37.3892 36.6106 39.0005 36.6106Z" fill="white"/>
</svg>

