<svg width="78" height="78" viewBox="0 0 78 78" fill="none" xmlns="http://www.w3.org/2000/svg">
  <path d="M39 0L9.75 10.875C8.25 11.375 7.3125 12.8125 7.3125 14.375V39C7.3125 56.4375 23.8125 63.4375 39 72.625C54.1875 63.4375 70.6875 56.4375 70.6875 39V14.375C70.6875 12.8125 69.75 11.375 68.25 10.875L39 0Z" fill="#44B678"/>
  <path d="M39 3.25L12.1875 13.1875V39C12.1875 53.5625 25.5 59.5625 39 67.9375C52.5 59.5625 65.8125 53.5625 65.8125 39V13.1875L39 3.25Z" fill="#6DD89C"/>
  <path d="M32.5 39L28.0625 34.5625L24.375 38.25L32.5 46.375L53.625 25.25L49.9375 21.5625L32.5 39Z" fill="white"/>
</svg>

