<svg width="78" height="78" viewBox="0 0 78 78" fill="none" xmlns="http://www.w3.org/2000/svg">
  <path fill-rule="evenodd" clip-rule="evenodd" d="M0.0785667 28.8449L21.7179 3.82141C21.7727 3.75961 21.8495 3.72178 21.9318 3.71608C22.0142 3.71038 22.0955 3.73727 22.1582 3.79094L54.2127 31.5087C54.2745 31.5644 54.3122 31.6419 54.3179 31.7249C54.3236 31.8079 54.2968 31.8899 54.2432 31.9535L32.6044 56.9766C32.5489 57.0387 32.4714 57.0766 32.3883 57.0825C32.3053 57.0883 32.2232 57.0615 32.1596 57.0078L0.109645 29.2896C0.0780766 29.2627 0.0522047 29.2297 0.0335447 29.1926C0.0148846 29.1555 0.00381146 29.1151 0.000973939 29.0737C-0.00186358 29.0323 0.00359155 28.9907 0.0170198 28.9514C0.030448 28.9122 0.0515794 28.8759 0.079176 28.8449H0.0785667Z" fill="#006694"/>
  <path fill-rule="evenodd" clip-rule="evenodd" d="M14.4381 17.0646L29.5448 10.1765L54.2128 31.5086C54.2746 31.5643 54.3123 31.6419 54.318 31.7249C54.3237 31.8079 54.2969 31.8898 54.2432 31.9534L32.6045 56.9765C32.549 57.0386 32.4715 57.0766 32.3884 57.0824C32.3053 57.0882 32.2233 57.0614 32.1596 57.0077L30.6255 55.6781L13.7978 18.7768C13.6563 18.4648 13.6441 18.1094 13.7641 17.7885C13.884 17.4676 14.1262 17.2073 14.4376 17.0646H14.4381Z" fill="#005C85"/>
  <path fill-rule="evenodd" clip-rule="evenodd" d="M14.8429 17.954L44.9449 4.2304C45.0205 4.19669 45.1063 4.19413 45.1837 4.22327C45.2612 4.25242 45.324 4.31093 45.3586 4.3861L62.9378 42.9422C62.9556 42.9795 62.9658 43.02 62.9678 43.0613C62.9699 43.1026 62.9637 43.1439 62.9496 43.1828C62.9356 43.2217 62.9139 43.2574 62.8859 43.2878C62.858 43.3183 62.8242 43.3429 62.7867 43.3602L32.6845 57.0832C32.6082 57.1165 32.522 57.1189 32.444 57.0899C32.366 57.0608 32.3023 57.0026 32.2664 56.9275L14.6872 18.3726C14.6531 18.2965 14.6503 18.2099 14.6794 18.1317C14.7085 18.0535 14.7673 17.9899 14.8429 17.9546V17.954Z" fill="#60B7FF"/>
  <path fill-rule="evenodd" clip-rule="evenodd" d="M32.711 13.2314H49.3926L62.9377 42.9423C62.9555 42.9796 62.9657 43.0201 62.9677 43.0614C62.9697 43.1027 62.9635 43.144 62.9495 43.1829C62.9354 43.2218 62.9138 43.2575 62.8858 43.2879C62.8578 43.3184 62.8241 43.343 62.7865 43.3603L32.6843 57.0833C32.6081 57.1166 32.5218 57.119 32.4438 57.09C32.3658 57.0609 32.3022 57.0027 32.2663 56.9276L31.4214 55.069V14.5255C31.421 14.3558 31.4541 14.1877 31.5187 14.0309C31.5834 13.874 31.6783 13.7314 31.798 13.6112C31.9178 13.491 32.0601 13.3956 32.2167 13.3305C32.3734 13.2653 32.5413 13.2317 32.711 13.2314Z" fill="#56A5E6"/>
  <path fill-rule="evenodd" clip-rule="evenodd" d="M32.7112 14.2097H57.3479L66.1086 22.9704V56.8974C66.1082 56.981 66.0749 57.0611 66.0158 57.1202C65.9566 57.1794 65.8765 57.2128 65.7929 57.2132H32.7112C32.67 57.2129 32.6292 57.2045 32.5913 57.1885C32.5534 57.1725 32.5189 57.1491 32.49 57.1198C32.4611 57.0905 32.4383 57.0557 32.4228 57.0175C32.4074 56.9794 32.3996 56.9385 32.3999 56.8974V14.5254C32.3996 14.4842 32.4074 14.4434 32.4228 14.4052C32.4383 14.367 32.4611 14.3323 32.49 14.303C32.519 14.2737 32.5534 14.2503 32.5913 14.2343C32.6292 14.2183 32.67 14.21 32.7112 14.2097Z" fill="#EAF6FF"/>
  <path fill-rule="evenodd" clip-rule="evenodd" d="M57.3479 14.2097V21.0042C57.3489 21.5251 57.5563 22.0244 57.9246 22.3928C58.2929 22.7611 58.7922 22.9685 59.3131 22.9695H66.1077L57.3479 14.2097Z" fill="#BEC7CF"/>
  <path fill-rule="evenodd" clip-rule="evenodd" d="M40.2888 44.0852H66.1397C67.45 44.0892 68.7054 44.6114 69.632 45.538C70.5585 46.4645 71.0808 47.72 71.0847 49.0303V69.34C71.0815 70.6505 70.5595 71.9065 69.6328 72.8332C68.7061 73.7599 67.4502 74.2819 66.1397 74.2852H20.3083C18.9979 74.2812 17.7424 73.7589 16.8159 72.8324C15.8893 71.9058 15.367 70.6503 15.363 69.34V39.1399C15.3659 38.0632 15.7953 37.0315 16.557 36.2706C17.3188 35.5097 18.351 35.0815 19.4277 35.0798H28.0594C29.4914 35.0798 30.4653 35.9604 31.488 36.9566L36.8601 42.2085C37.8829 43.209 38.8569 44.0852 40.2888 44.0852Z" fill="#FFBA57"/>
  <path d="M37.7852 22.8503C37.4961 22.8469 37.22 22.7296 37.0168 22.524C36.8135 22.3184 36.6996 22.0409 36.6996 21.7518C36.6996 21.4627 36.8135 21.1852 37.0168 20.9796C37.22 20.774 37.4961 20.6567 37.7852 20.6533H52.3093C52.5984 20.6567 52.8745 20.774 53.0777 20.9796C53.281 21.1852 53.3949 21.4627 53.3949 21.7518C53.3949 22.0409 53.281 22.3184 53.0777 22.524C52.8745 22.7296 52.5984 22.8469 52.3093 22.8503H37.7852ZM37.7852 38.8768C37.4939 38.8768 37.2145 38.7611 37.0085 38.5551C36.8025 38.3491 36.6868 38.0697 36.6868 37.7784C36.6868 37.4871 36.8025 37.2077 37.0085 37.0017C37.2145 36.7958 37.4939 36.68 37.7852 36.68H60.7231C61.0144 36.68 61.2938 36.7958 61.4998 37.0017C61.7058 37.2077 61.8215 37.4871 61.8215 37.7784C61.8215 38.0697 61.7058 38.3491 61.4998 38.5551C61.2938 38.7611 61.0144 38.8768 60.7231 38.8768H37.7852ZM37.7852 33.536C37.4961 33.5326 37.22 33.4153 37.0168 33.2097C36.8135 33.0041 36.6996 32.7266 36.6996 32.4375C36.6996 32.1484 36.8135 31.8709 37.0168 31.6653C37.22 31.4597 37.4961 31.3424 37.7852 31.339H60.7231C60.8684 31.3373 61.0127 31.3645 61.1475 31.4189C61.2822 31.4733 61.4049 31.554 61.5083 31.6561C61.6116 31.7583 61.6937 31.88 61.7497 32.0141C61.8057 32.1482 61.8346 32.2921 61.8346 32.4375C61.8346 32.5828 61.8057 32.7268 61.7497 32.8609C61.6937 32.995 61.6116 33.1167 61.5083 33.2188C61.4049 33.321 61.2822 33.4017 61.1475 33.4561C61.0127 33.5105 60.8684 33.5377 60.7231 33.536H37.7852ZM37.7852 28.1949C37.6409 28.1949 37.4981 28.1665 37.3648 28.1113C37.2316 28.0561 37.1105 27.9752 37.0085 27.8732C36.9065 27.7712 36.8256 27.6501 36.7704 27.5169C36.7152 27.3836 36.6868 27.2408 36.6868 27.0965C36.6868 26.9523 36.7152 26.8095 36.7704 26.6762C36.8256 26.5429 36.9065 26.4219 37.0085 26.3199C37.1105 26.2179 37.2316 26.137 37.3648 26.0818C37.4981 26.0266 37.6409 25.9981 37.7852 25.9981H60.7231C60.8673 25.9981 61.0102 26.0266 61.1434 26.0818C61.2767 26.137 61.3978 26.2179 61.4998 26.3199C61.6018 26.4219 61.6827 26.5429 61.7379 26.6762C61.7931 26.8095 61.8215 26.9523 61.8215 27.0965C61.8215 27.2408 61.7931 27.3836 61.7379 27.5169C61.6827 27.6501 61.6018 27.7712 61.4998 27.8732C61.3978 27.9752 61.2767 28.0561 61.1434 28.1113C61.0102 28.1665 60.8673 28.1949 60.7231 28.1949H37.7852Z" fill="#BEC7CF"/>
  <path d="M22.3406 61.0239C22.0493 61.0239 21.7699 60.9082 21.5639 60.7022C21.3579 60.4962 21.2422 60.2169 21.2422 59.9255C21.2422 59.6342 21.3579 59.3549 21.5639 59.1489C21.7699 58.9429 22.0493 58.8271 22.3406 58.8271H33.0535C33.3449 58.8271 33.6242 58.9429 33.8302 59.1489C34.0362 59.3549 34.1519 59.6342 34.1519 59.9255C34.1519 60.2169 34.0362 60.4962 33.8302 60.7022C33.6242 60.9082 33.3449 61.0239 33.0535 61.0239H22.3406ZM22.3406 68.5261C22.0493 68.5261 21.7699 68.4104 21.5639 68.2044C21.3579 67.9984 21.2422 67.719 21.2422 67.4277C21.2422 67.1364 21.3579 66.857 21.5639 66.651C21.7699 66.445 22.0493 66.3293 22.3406 66.3293H64.1073C64.3986 66.3293 64.678 66.445 64.884 66.651C65.09 66.857 65.2057 67.1364 65.2057 67.4277C65.2057 67.719 65.09 67.9984 64.884 68.2044C64.678 68.4104 64.3986 68.5261 64.1073 68.5261H22.3406Z" fill="#CF9646"/>
  <path fill-rule="evenodd" clip-rule="evenodd" d="M66.1085 44.9167C66.7869 45.3675 67.3436 45.9787 67.7292 46.6963C68.1148 47.4138 68.3173 48.2154 68.3188 49.03V69.34C68.3156 70.6505 67.7935 71.9065 66.8668 72.8332C65.9401 73.7599 64.6841 74.2819 63.3736 74.2852H66.1397C67.4502 74.2819 68.7062 73.7599 69.6328 72.8332C70.5595 71.9065 71.0815 70.6505 71.0848 69.34V49.0303C71.0857 48.3814 70.9572 47.7389 70.7068 47.1403C70.3307 46.2381 69.6967 45.467 68.8842 44.9236C68.0718 44.3801 67.1171 44.0885 66.1397 44.0852H63.3736C64.3475 44.0851 65.2994 44.3745 66.1085 44.9167ZM36.8601 42.2085L32.3998 37.8504L31.488 36.9566C30.4654 35.9604 29.4914 35.0798 28.0594 35.0798H25.2979C26.7253 35.0798 27.6992 35.9604 28.7221 36.9566L32.3998 40.5497L34.0986 42.2085C35.1169 43.209 36.0908 44.0852 37.5228 44.0852H40.2888C38.8567 44.0852 37.883 43.209 36.8601 42.2085Z" fill="#E6A74E"/>
  <path fill-rule="evenodd" clip-rule="evenodd" d="M68.6389 58.6848C70.4903 58.6848 72.3002 58.1358 73.8396 57.1072C75.3791 56.0785 76.5789 54.6166 77.2874 52.906C77.9959 51.1955 78.1813 49.3133 77.8201 47.4975C77.4589 45.6816 76.5673 44.0136 75.2582 42.7044C73.949 41.3953 72.281 40.5037 70.4652 40.1425C68.6493 39.7813 66.7671 39.9667 65.0566 40.6752C63.3461 41.3837 61.8841 42.5836 60.8555 44.123C59.8269 45.6624 59.2778 47.4723 59.2778 49.3237C59.2825 51.805 60.2702 54.1833 62.0247 55.9379C63.7793 57.6924 66.1576 58.6802 68.6389 58.6848Z" fill="#25C73B"/>
  <path d="M63.0445 50.5956C62.9398 50.4942 62.8563 50.3731 62.7989 50.2392C62.7415 50.1053 62.7113 49.9613 62.71 49.8156C62.7087 49.6699 62.7364 49.5254 62.7915 49.3905C62.8466 49.2556 62.928 49.133 63.0309 49.0299C63.1338 48.9267 63.2561 48.845 63.3909 48.7896C63.5256 48.7342 63.67 48.7061 63.8157 48.707C63.9614 48.7079 64.1055 48.7378 64.2396 48.7949C64.3736 48.8519 64.495 48.9351 64.5966 49.0395L66.7044 51.1473L72.6763 45.1755C72.8821 44.9697 73.1612 44.854 73.4523 44.854C73.7433 44.854 74.0225 44.9696 74.2283 45.1754C74.4341 45.3812 74.5497 45.6603 74.5498 45.9514C74.5498 46.2424 74.4342 46.5216 74.2284 46.7274L67.4782 53.4773C67.272 53.6824 66.993 53.7975 66.7022 53.7975C66.4114 53.7975 66.1324 53.6824 65.9262 53.4773L63.0445 50.5956Z" fill="#EAF6FF"/>
  <path fill-rule="evenodd" clip-rule="evenodd" d="M67.8429 39.9937C70.1397 40.1885 72.2839 41.2236 73.865 42.9008C75.4461 44.5781 76.3529 46.7796 76.4119 49.0839C76.4708 51.3881 75.6777 53.6332 74.1844 55.3891C72.6912 57.145 70.6027 58.2883 68.3188 58.6002C68.1608 58.6227 68.0021 58.6405 67.8429 58.6535C68.003 58.667 68.1587 58.6758 68.3188 58.6804C68.4255 58.6848 68.5321 58.6848 68.6388 58.6848C69.4649 58.6863 70.2875 58.5771 71.0846 58.3601C73.2749 57.7672 75.1752 56.399 76.4321 54.5099C77.6891 52.6209 78.2172 50.3396 77.9182 48.0903C77.6191 45.8411 76.5134 43.777 74.8065 42.2819C73.0996 40.7869 70.9078 39.9627 68.6388 39.9626C68.3719 39.9626 68.1056 39.9715 67.8428 39.9931L67.8429 39.9937Z" fill="#21B335"/>
  <path fill-rule="evenodd" clip-rule="evenodd" d="M64.1072 22.9705V41.1279C64.7401 40.778 65.4117 40.5034 66.1084 40.3096V22.9705H64.1072Z" fill="#D3DDE6"/>
</svg>

